<?xml version="1.0" encoding="utf-8"?>
<!-- Generator: Adobe Illustrator 15.0.0, SVG Export Plug-In . SVG Version: 6.00 Build 0)  -->
<!DOCTYPE svg PUBLIC "-//W3C//DTD SVG 1.1//EN" "http://www.w3.org/Graphics/SVG/1.1/DTD/svg11.dtd">
<svg version="1.1" id="Layer_1" xmlns="http://www.w3.org/2000/svg" xmlns:xlink="http://www.w3.org/1999/xlink" x="0px" y="0px"
	 width="400px" height="80px" viewBox="0 0 400 80" enable-background="new 0 0 400 80" xml:space="preserve">
<g>
	<g>
		<path fill="#BD9448" d="M35.234,30.212L30.574,6.487V6.481c-0.108,0.019-1.156,0.242-1.216,0.255
			c-4.292,0.969-8.356,2.775-11.946,5.295c-0.148,0.103-0.294,0.214-0.442,0.322c-0.135,0.095-0.271,0.194-0.405,0.293
			c-3.469,2.601-6.455,5.881-8.735,9.732c-0.031,0.053-0.063,0.103-0.09,0.154c-0.124,0.211-0.244,0.427-0.364,0.641
			c-0.056,0.096-0.106,0.185-0.157,0.278c-0.971,1.788-1.799,3.689-2.454,5.702c-0.649,2.004-1.099,4.03-1.365,6.049l22.41,14.939
			L35.234,30.212z"/>
		<polygon opacity="0.1" fill="#FFFFFF" enable-background="new    " points="30.611,6.416 3.566,35.209 38.281,45.824 		"/>
		<path opacity="0.1" fill="#FFFFFF" enable-background="new    " d="M13.134,15.583L24.289,41.54l10.947-11.804l-4.625-23.32
			C30.611,6.416,20.679,8.108,13.134,15.583z"/>
		<path fill="#D16A5C" d="M66.257,23.43C60.551,12.982,49.497,5.914,36.756,5.914c-5.043-0.073-9.137,1.259-9.137,1.259
			l4.854,21.991l11.616,5.619L66.257,23.43z"/>
		<path fill="#6C7980" d="M70.109,35.201l-21.643,3.388L31.24,48.114l-8.918,21.813l-0.007,0.004
			c0.107,0.044,0.207,0.088,0.311,0.137c0.212,0.101,0.428,0.201,0.648,0.294c0.063,0.028,0.124,0.053,0.187,0.082
			c4.046,1.733,8.386,2.659,12.769,2.729c0.184,0.003,0.365,0,0.548,0c0.164,0,0.331,0,0.503,0c4.334-0.063,8.68-0.967,12.792-2.741
			c0.05-0.025,0.1-0.041,0.15-0.063c0.23-0.099,0.458-0.206,0.682-0.312c0.098-0.044,0.188-0.087,0.282-0.128
			c1.839-0.881,3.627-1.932,5.335-3.171C66.831,59.266,71.637,47.006,70.109,35.201"/>
		<path fill="#378EBF" d="M62.367,17.835c6.139,6.139,10.47,19.324,6.371,32.097c-0.65,2.009-1.476,3.914-2.45,5.705l-24.247-11.48
			l0.024-11.349L62.367,17.835z"/>
		<path fill="#42B781" d="M4.104,31.83c-0.014,0.11-2.568,6.854,0.502,17.61c0.054,0.175,0.111,0.344,0.167,0.514
			c0.051,0.165,0.103,0.322,0.159,0.484c1.399,4.1,3.602,7.958,6.563,11.318c0.036,0.041,0.072,0.088,0.109,0.128
			c0.165,0.182,0.335,0.368,0.505,0.547c0.069,0.081,0.142,0.157,0.212,0.229c1.404,1.478,2.953,2.854,4.665,4.095
			c8.223,6.186,17.624,6.455,19.229,6.447l-2.129-23.482l-5.04-6.372L4.104,31.83z"/>
		<path opacity="0.1" fill="#FFFFFF" enable-background="new    " d="M62.367,17.835L38.188,35.732l29.405-9.413
			C67.593,26.32,66.609,22.233,62.367,17.835z"/>
		<path opacity="0.1" fill="#FFFFFF" enable-background="new    " d="M66.232,55.6L44.469,45.347l23.108-19.123
			C67.577,26.226,74.644,40.412,66.232,55.6z"/>
		<path opacity="0.1" fill="#FFFFFF" enable-background="new    " d="M36.215,73.197l6.636-28.514L66.234,55.6
			C66.232,55.6,58.058,73.053,36.215,73.197z"/>
		<path opacity="0.1" fill="#FFFFFF" enable-background="new    " d="M33.597,50.312l2.619,22.885c0,0,8.296,0.338,15.316-3.484
			L35.792,46.38L33.597,50.312z"/>
		<polygon opacity="0.1" fill="#FFFFFF" enable-background="new    " points="66.232,55.6 51.333,28.489 40.773,38.872 
			41.492,43.988 		"/>
		<path opacity="0.1" fill="#FFFFFF" enable-background="new    " d="M36.227,73.278l-2.603-22.757L5.568,52.034
			C5.568,52.034,12.219,72.203,36.227,73.278z"/>
		<polygon opacity="0.1" fill="#FFFFFF" enable-background="new    " points="3.316,35.114 23.855,47.115 36.215,73.097 		"/>
		<path opacity="0.1" fill="#FFFFFF" enable-background="new    " d="M3.401,35.2l16.982,5.1l15.883,32.901
			c0,0-7.213,0.263-15.192-3.934C11.964,64.482,1.697,53.559,3.401,35.2z"/>
		<path opacity="0.1" fill="#FFFFFF" enable-background="new    " d="M27.717,7.173l17.705,23.134l16.945-12.563
			C62.367,17.742,49.322,1.367,27.717,7.173z"/>
		<polygon opacity="0.1" fill="#FFFFFF" enable-background="new    " points="30.378,19.36 33.999,38.872 62.486,17.813 		"/>
	</g>
	<path fill="#FFFFFF" d="M24.18,27.185c0-1.646,1.336-2.979,2.982-2.979c0.512,0,0.834,0.135,1.406,0.36l20.906,12.167
		c0.973,0.578,1.423,1.501,1.599,2.571v0.293c-0.175,1.075-0.624,1.996-1.599,2.572L28.567,54.335
		c-0.571,0.23-0.896,0.362-1.406,0.362c-1.646,0-2.982-1.335-2.982-2.984V27.185L24.18,27.185z"/>
</g>
<path fill="#F4B361" d="M350.962,34.262c0,0.494,0.148,0.926,0.452,1.291c0.301,0.365,0.671,0.688,1.113,0.969
	c0.448,0.279,0.905,0.516,1.392,0.71c0.483,0.193,0.918,0.375,1.307,0.549c0.99,0.43,1.836,0.86,2.53,1.291
	c0.704,0.43,1.28,0.894,1.73,1.39c0.453,0.494,0.787,1.046,1.001,1.659c0.218,0.614,0.313,1.329,0.293,2.148
	c-0.044,2.127-0.71,3.848-2.004,5.149c-1.293,1.298-3.261,1.997-5.909,2.081c-0.943,0.045-1.847-0.072-2.71-0.341
	c-0.862-0.269-1.603-0.562-2.228-0.885c-0.558-0.28-1.006-0.601-1.34-0.967c-0.334-0.365-0.576-0.727-0.726-1.083
	c-0.148-0.354-0.221-0.698-0.213-1.03c0.013-0.334,0.105-0.631,0.277-0.89c0.301-0.474,0.661-0.737,1.08-0.79
	c0.422-0.052,0.812,0.038,1.181,0.277c0.319,0.215,0.661,0.445,1.019,0.691c0.353,0.248,0.73,0.475,1.126,0.677
	c0.398,0.207,0.82,0.37,1.263,0.496c0.438,0.134,0.918,0.197,1.433,0.197c0.432,0,0.856-0.076,1.278-0.226
	c0.419-0.146,0.789-0.365,1.113-0.646c0.324-0.281,0.581-0.629,0.774-1.048c0.189-0.42,0.293-0.901,0.293-1.438
	c0-0.517-0.124-0.967-0.357-1.355c-0.234-0.388-0.52-0.727-0.854-1.017c-0.331-0.292-0.696-0.535-1.098-0.728
	c-0.396-0.192-0.759-0.343-1.083-0.449c-0.902-0.325-1.746-0.674-2.535-1.052c-0.782-0.376-1.469-0.821-2.047-1.341
	c-0.584-0.516-1.044-1.13-1.392-1.84c-0.345-0.711-0.517-1.55-0.517-2.518c0-1.032,0.213-1.94,0.63-2.729
	c0.422-0.785,0.975-1.435,1.664-1.952c0.687-0.517,1.468-0.904,2.34-1.161c0.872-0.259,1.759-0.378,2.662-0.355
	c1.013,0.021,1.946,0.183,2.811,0.483c0.861,0.301,1.573,0.679,2.147,1.13c0.57,0.452,0.954,0.942,1.159,1.469
	c0.206,0.527,0.167,1.029-0.113,1.501c-0.148,0.235-0.339,0.424-0.562,0.565c-0.227,0.14-0.463,0.237-0.713,0.291
	c-0.246,0.054-0.491,0.059-0.725,0.017c-0.237-0.042-0.435-0.129-0.584-0.257c-0.216-0.153-0.458-0.316-0.728-0.5
	c-0.268-0.184-0.566-0.355-0.885-0.517c-0.321-0.162-0.664-0.29-1.021-0.387c-0.352-0.098-0.715-0.144-1.08-0.144
	c-0.406,0-0.771,0.081-1.098,0.243c-0.321,0.161-0.597,0.367-0.823,0.612c-0.226,0.248-0.403,0.524-0.532,0.825
	C351.028,33.627,350.962,33.937,350.962,34.262z"/>
<path fill="#F4B361" d="M371.948,49.658c0,0.434-0.156,0.819-0.473,1.165c-0.312,0.341-0.844,0.513-1.595,0.513
	c-0.753,0-1.286-0.182-1.6-0.547c-0.311-0.365-0.468-0.743-0.468-1.131v-8.33L362.102,31c-0.216-0.387-0.28-0.824-0.192-1.308
	c0.082-0.483,0.342-0.854,0.771-1.113c0.432-0.26,0.897-0.389,1.404-0.389c0.506,0,0.877,0.216,1.113,0.646l4.714,8.911l4.552-8.782
	c0.148-0.259,0.354-0.445,0.611-0.562c0.255-0.118,0.522-0.188,0.79-0.212c0.27-0.021,0.529,0.004,0.773,0.083
	c0.247,0.075,0.438,0.157,0.568,0.24c0.518,0.367,0.774,0.743,0.79,1.13c0.013,0.388-0.103,0.796-0.342,1.228l-5.709,10.457v8.33
	H371.948z"/>
<path fill="#F4B361" d="M384.179,34.262c0,0.494,0.152,0.926,0.455,1.291c0.302,0.365,0.672,0.688,1.114,0.969
	c0.442,0.279,0.902,0.516,1.386,0.71c0.488,0.193,0.921,0.375,1.309,0.549c0.988,0.43,1.837,0.86,2.533,1.291
	c0.7,0.43,1.278,0.894,1.729,1.39c0.452,0.494,0.787,1.046,1,1.659c0.216,0.614,0.313,1.329,0.293,2.148
	c-0.046,2.127-0.709,3.848-2.006,5.149c-1.288,1.298-3.258,1.997-5.901,2.081c-0.946,0.045-1.854-0.072-2.713-0.341
	c-0.861-0.269-1.607-0.562-2.228-0.885c-0.561-0.28-1.011-0.601-1.342-0.967c-0.332-0.365-0.574-0.727-0.729-1.083
	c-0.148-0.354-0.221-0.698-0.208-1.03c0.013-0.334,0.105-0.631,0.275-0.89c0.298-0.474,0.661-0.737,1.083-0.79
	c0.416-0.052,0.81,0.038,1.175,0.277c0.324,0.215,0.663,0.445,1.019,0.691c0.357,0.248,0.732,0.475,1.131,0.677
	c0.399,0.207,0.818,0.37,1.261,0.496c0.437,0.134,0.918,0.197,1.435,0.197c0.433,0,0.854-0.076,1.275-0.226
	c0.417-0.146,0.79-0.365,1.116-0.646c0.319-0.281,0.579-0.629,0.771-1.048c0.193-0.42,0.293-0.901,0.293-1.438
	c0-0.517-0.118-0.967-0.357-1.355c-0.233-0.388-0.521-0.727-0.851-1.017c-0.335-0.292-0.7-0.535-1.104-0.728
	c-0.396-0.192-0.759-0.343-1.077-0.449c-0.905-0.325-1.746-0.674-2.536-1.052c-0.787-0.376-1.471-0.821-2.05-1.341
	c-0.581-0.516-1.044-1.13-1.389-1.84c-0.347-0.711-0.517-1.55-0.517-2.518c0-1.032,0.211-1.94,0.63-2.729
	c0.42-0.785,0.973-1.435,1.661-1.952c0.689-0.517,1.469-0.904,2.341-1.161c0.869-0.259,1.759-0.378,2.664-0.355
	c1.011,0.021,1.944,0.183,2.808,0.483c0.862,0.301,1.574,0.679,2.15,1.13c0.568,0.452,0.954,0.942,1.16,1.469
	c0.203,0.527,0.167,1.029-0.116,1.501c-0.149,0.235-0.34,0.424-0.565,0.565c-0.224,0.14-0.463,0.237-0.707,0.291
	c-0.25,0.054-0.491,0.059-0.729,0.017c-0.236-0.042-0.432-0.129-0.581-0.257c-0.219-0.153-0.46-0.316-0.728-0.5
	c-0.27-0.184-0.565-0.355-0.89-0.517c-0.321-0.162-0.661-0.29-1.016-0.387c-0.355-0.098-0.715-0.144-1.08-0.144
	c-0.409,0-0.774,0.081-1.101,0.243c-0.322,0.161-0.597,0.367-0.82,0.612c-0.229,0.248-0.406,0.524-0.535,0.825
	C384.243,33.627,384.179,33.937,384.179,34.262z"/>
<g>
	<g>
		<path fill="#BD9448" d="M94.853-68.664l-6.661-15.368c-0.075-0.147-0.098-0.27-0.098-0.443c0-0.494,0.444-0.962,0.986-0.962
			c0.493,0,0.839,0.319,1.012,0.741l5.97,14.308l5.995-14.357c0.174-0.346,0.518-0.691,0.962-0.691c0.542,0,0.962,0.443,0.962,0.937
			c0,0.149-0.025,0.27-0.075,0.395l-6.685,15.441c-0.223,0.494-0.567,0.815-1.134,0.815h-0.1
			C95.419-67.849,95.049-68.17,94.853-68.664z"/>
		<path fill="#BD9448" d="M96.087-67.656h-0.1c-0.605,0-1.073-0.332-1.312-0.937l-6.659-15.363
			c-0.082-0.158-0.116-0.308-0.116-0.519c0-0.615,0.55-1.154,1.179-1.154c0.524,0,0.968,0.321,1.188,0.861l5.792,13.882
			l5.818-13.933c0.198-0.396,0.598-0.808,1.139-0.808c0.625,0,1.154,0.517,1.154,1.129c0,0.166-0.029,0.315-0.089,0.465
			l-6.688,15.449C97.118-67.969,96.678-67.656,96.087-67.656z M89.08-85.245c-0.417,0-0.794,0.367-0.794,0.77
			c0,0.151,0.02,0.241,0.079,0.356l6.667,15.378c0.186,0.465,0.507,0.7,0.958,0.7h0.099c0.439,0,0.744-0.225,0.96-0.703
			l6.684-15.438c0.04-0.1,0.06-0.2,0.06-0.318c0-0.404-0.352-0.745-0.77-0.745c-0.366,0-0.648,0.302-0.79,0.585l-6.167,14.77
			l-6.147-14.732C89.837-84.812,89.601-85.245,89.08-85.245z"/>
	</g>
	<g>
		<path fill="#BD9448" d="M106.838-84.796c0-0.617,0.495-1.012,1.111-1.012c0.641,0,1.136,0.394,1.136,1.012v0.321
			c0,0.591-0.494,1.011-1.136,1.011c-0.616,0-1.111-0.419-1.111-1.011V-84.796z M107.012-79.96c0-0.52,0.418-0.962,0.936-0.962
			c0.542,0,0.962,0.418,0.962,0.962v11.074c0,0.545-0.395,0.962-0.938,0.962c-0.544,0-0.962-0.417-0.962-0.962V-79.96H107.012z"/>
		<path fill="#BD9448" d="M107.974-67.731c-0.646,0-1.154-0.507-1.154-1.154V-79.96c0-0.638,0.507-1.154,1.128-1.154
			c0.646,0,1.154,0.507,1.154,1.154v11.074C109.103-68.229,108.618-67.731,107.974-67.731z M107.949-80.73
			c-0.404,0-0.744,0.352-0.744,0.77v11.074c0,0.437,0.33,0.77,0.77,0.77c0.433,0,0.746-0.324,0.746-0.77V-79.96
			C108.719-80.398,108.387-80.73,107.949-80.73z M107.949-83.272c-0.742,0-1.303-0.518-1.303-1.203v-0.321
			c0-0.698,0.547-1.204,1.303-1.204c0.768,0,1.328,0.506,1.328,1.204v0.321C109.277-83.79,108.706-83.272,107.949-83.272z
			 M107.949-85.616c-0.541,0-0.918,0.337-0.918,0.819v0.321c0,0.467,0.395,0.819,0.918,0.819c0.545,0,0.944-0.344,0.944-0.819
			v-0.321C108.893-85.287,108.513-85.616,107.949-85.616z"/>
	</g>
	<g>
		<path fill="#BD9448" d="M125.464-68.886c0,0.545-0.42,0.962-0.938,0.962c-0.544,0-0.962-0.417-0.962-0.962v-1.726
			c-1.036,1.528-2.54,2.836-4.886,2.836c-3.058,0-6.092-2.417-6.092-6.611v-0.049c0-4.169,3.034-6.637,6.092-6.637
			c2.37,0,3.9,1.283,4.886,2.714v-6.858c0-0.541,0.395-0.96,0.937-0.96s0.962,0.419,0.962,0.96V-68.886z M114.535-74.459v0.05
			c0,3.007,2.096,4.933,4.49,4.933c2.368,0,4.612-1.998,4.612-4.933v-0.05c0-2.936-2.245-4.911-4.612-4.911
			C116.557-79.37,114.535-77.544,114.535-74.459z"/>
		<path fill="#BD9448" d="M118.679-67.582c-3.046,0-6.284-2.385-6.284-6.803v-0.051c0-4.435,3.238-6.83,6.284-6.83
			c1.884,0,3.461,0.781,4.693,2.326v-6.278c0-0.658,0.486-1.153,1.129-1.153c0.648,0,1.154,0.507,1.154,1.153v16.332
			c0,0.647-0.496,1.154-1.129,1.154c-0.647,0-1.154-0.507-1.154-1.154v-1.133C122.103-68.38,120.563-67.582,118.679-67.582z
			 M118.679-80.879c-2.86,0-5.9,2.26-5.9,6.445v0.049c0,4.169,3.04,6.419,5.9,6.419c1.925,0,3.47-0.9,4.726-2.754l0.352-0.518v2.352
			c0,0.437,0.332,0.77,0.77,0.77c0.418,0,0.745-0.339,0.745-0.77v-16.332c0-0.438-0.332-0.769-0.77-0.769
			c-0.431,0-0.745,0.323-0.745,0.769v7.476l-0.35-0.509C122.203-79.994,120.613-80.879,118.679-80.879z M119.025-69.284
			c-2.669,0-4.683-2.204-4.683-5.125v-0.05c0-3.005,1.926-5.103,4.683-5.103c2.362,0,4.804,1.909,4.804,5.103v0.05
			C123.831-71.243,121.336-69.284,119.025-69.284z M119.025-79.178c-2.531,0-4.298,1.94-4.298,4.719v0.05
			c0,2.704,1.849,4.741,4.298,4.741c2.126,0,4.42-1.813,4.42-4.741v-0.05C123.446-77.413,121.198-79.178,119.025-79.178z"/>
	</g>
	<g>
		<path fill="#BD9448" d="M135.28-67.75c-3.502,0-6.364-2.69-6.364-6.637v-0.049c0-3.676,2.589-6.637,6.118-6.637
			c3.774,0,5.921,3.084,5.921,6.465c0,0.519-0.419,0.887-0.889,0.887h-9.226c0.271,2.764,2.221,4.32,4.491,4.32
			c1.578,0,2.737-0.62,3.676-1.482c0.146-0.125,0.319-0.223,0.542-0.223c0.469,0,0.837,0.373,0.837,0.815
			c0,0.223-0.099,0.444-0.295,0.618C138.884-68.515,137.452-67.75,135.28-67.75z M139.056-75.125
			c-0.197-2.32-1.531-4.342-4.071-4.342c-2.221,0-3.898,1.85-4.146,4.342H139.056z"/>
		<path fill="#BD9448" d="M135.28-67.558c-3.738,0-6.557-2.936-6.557-6.829v-0.049c0-3.829,2.773-6.83,6.311-6.83
			c4.013,0,6.113,3.349,6.113,6.658c0,0.605-0.475,1.079-1.081,1.079h-9.01c0.318,2.363,2.014,3.936,4.276,3.936
			c1.357,0,2.483-0.456,3.546-1.431c0.741-0.636,1.701-0.053,1.701,0.733c0,0.288-0.127,0.556-0.359,0.763
			C138.799-68.167,137.273-67.558,135.28-67.558z M135.034-80.879c-3.378,0-5.926,2.771-5.926,6.445v0.049
			c0,3.673,2.654,6.443,6.172,6.443c1.887,0,3.33-0.577,4.678-1.87c0.154-0.136,0.235-0.305,0.235-0.479
			c0-0.481-0.563-0.868-1.063-0.446c-1.118,1.027-2.362,1.528-3.801,1.528c-2.537,0-4.418-1.806-4.681-4.494l-0.02-0.21h9.437
			c0.343,0,0.696-0.26,0.696-0.695C140.762-77.724,138.795-80.879,135.034-80.879z M139.265-74.933h-8.638l0.021-0.211
			c0.263-2.657,2.047-4.515,4.336-4.515c2.355,0,4.029,1.773,4.263,4.517L139.265-74.933z M131.055-75.317h7.789
			c-0.229-1.952-1.349-3.958-3.858-3.958C132.961-79.275,131.369-77.658,131.055-75.317z"/>
	</g>
	<g>
		<path fill="#BD9448" d="M143.517-74.361v-0.048c0-3.602,2.812-6.662,6.661-6.662c3.824,0,6.637,3.009,6.637,6.613v0.05
			c0,3.601-2.837,6.658-6.686,6.658C146.305-67.75,143.517-70.759,143.517-74.361z M154.867-74.361v-0.048
			c0-2.74-2.047-4.984-4.737-4.984c-2.764,0-4.663,2.245-4.663,4.934v0.05c0,2.737,2.021,4.959,4.711,4.959
			C152.943-69.45,154.867-71.672,154.867-74.361z"/>
		<path fill="#BD9448" d="M150.13-67.558c-3.814,0-6.804-2.989-6.804-6.806c0-3.891,3.011-6.901,6.853-6.901
			c3.829,0,6.829,2.989,6.829,6.806v0.05C157.008-70.567,153.986-67.558,150.13-67.558z M150.179-80.879
			c-3.626,0-6.468,2.843-6.468,6.47c0,3.648,2.82,6.468,6.419,6.468c3.64,0,6.493-2.843,6.493-6.468v-0.05
			C156.624-78.061,153.792-80.879,150.179-80.879z M150.179-69.258c-2.75,0-4.904-2.263-4.904-5.151v-0.05
			c0-2.922,2.087-5.126,4.855-5.126c2.763,0,4.929,2.273,4.929,5.176C155.059-71.453,152.961-69.258,150.179-69.258z M150.13-79.201
			c-2.548,0-4.471,2.04-4.471,4.742v0.05c0,2.672,1.985,4.767,4.52,4.767c2.562,0,4.496-2.028,4.496-4.719
			C154.675-77.097,152.678-79.201,150.13-79.201z"/>
	</g>
	<g>
		<path fill="#BD9448" d="M160.562-84.426c0-0.518,0.443-0.962,0.962-0.962h0.223c0.418,0,0.715,0.224,0.913,0.518l6.166,9.276
			l6.169-9.276c0.196-0.32,0.52-0.518,0.912-0.518h0.226c0.516,0,0.96,0.445,0.96,0.962v15.518c0,0.541-0.444,0.985-0.96,0.985
			c-0.545,0-0.991-0.468-0.991-0.985v-12.878l-5.525,8.117c-0.224,0.319-0.469,0.492-0.813,0.492c-0.346,0-0.617-0.174-0.841-0.492
			l-5.5-8.093v12.876c0,0.543-0.418,0.962-0.962,0.962c-0.517,0-0.938-0.418-0.938-0.962V-84.426z"/>
		<path fill="#BD9448" d="M176.133-67.731c-0.643,0-1.183-0.541-1.183-1.177v-12.255l-5.175,7.603
			c-0.274,0.393-0.582,0.576-0.971,0.576c-0.396,0-0.732-0.192-0.998-0.575l-5.151-7.578v12.251c0,0.647-0.507,1.154-1.154,1.154
			c-0.633,0-1.129-0.507-1.129-1.154v-15.541c0-0.625,0.528-1.154,1.154-1.154h0.221c0.437,0,0.807,0.209,1.072,0.604l6.007,9.037
			l6.008-9.037c0.234-0.383,0.628-0.604,1.073-0.604h0.226c0.624,0,1.152,0.529,1.152,1.154v15.518
			C177.285-68.269,176.757-67.731,176.133-67.731z M175.334-82.412v13.503c0,0.422,0.372,0.793,0.799,0.793
			c0.415,0,0.769-0.363,0.769-0.793v-15.518c0-0.411-0.359-0.77-0.769-0.77h-0.226c-0.313,0-0.579,0.152-0.749,0.428l-6.332,9.522
			l-6.326-9.516c-0.192-0.287-0.445-0.434-0.753-0.434h-0.223c-0.41,0-0.77,0.359-0.77,0.77v15.541c0,0.431,0.327,0.77,0.745,0.77
			c0.439,0,0.77-0.333,0.77-0.77v-13.501l5.853,8.609c0.193,0.278,0.412,0.409,0.681,0.409c0.258,0,0.455-0.123,0.654-0.41
			L175.334-82.412z"/>
	</g>
	<g>
		<path fill="#BD9448" d="M180.689-71.748v-0.05c0-2.688,2.221-4.118,5.452-4.118c1.631,0,2.787,0.223,3.925,0.542v-0.444
			c0-2.295-1.406-3.478-3.801-3.478c-1.284,0-2.371,0.295-3.306,0.715c-0.123,0.05-0.246,0.074-0.347,0.074
			c-0.444,0-0.841-0.369-0.841-0.814c0-0.394,0.274-0.69,0.52-0.789c1.261-0.542,2.542-0.864,4.172-0.864
			c1.8,0,3.182,0.469,4.118,1.406c0.864,0.864,1.309,2.098,1.309,3.727v6.979c0,0.545-0.396,0.938-0.912,0.938
			c-0.543,0-0.912-0.393-0.912-0.887v-1.159c-0.888,1.159-2.372,2.196-4.614,2.196C183.084-67.773,180.689-69.132,180.689-71.748z
			 M190.093-72.734v-1.232c-0.94-0.273-2.198-0.542-3.75-0.542c-2.394,0-3.727,1.036-3.727,2.639v0.049
			c0,1.603,1.481,2.543,3.207,2.543C188.166-69.278,190.093-70.71,190.093-72.734z"/>
		<path fill="#BD9448" d="M185.452-67.582c-2.464,0-4.955-1.43-4.955-4.165v-0.05c0-2.657,2.161-4.31,5.645-4.31
			c1.641,0,2.773,0.224,3.732,0.482v-0.192c0-2.15-1.249-3.286-3.608-3.286c-1.122,0-2.179,0.228-3.229,0.699
			c-0.146,0.06-0.294,0.091-0.423,0.091c-0.559,0-1.033-0.46-1.033-1.006c0-0.488,0.33-0.842,0.64-0.966
			c1.408-0.607,2.72-0.878,4.244-0.878c1.853,0,3.285,0.492,4.255,1.463c0.905,0.906,1.364,2.207,1.364,3.861v6.979
			c0,0.644-0.475,1.13-1.104,1.13c-0.631,0-1.104-0.465-1.104-1.079v-0.632C189.026-68.518,187.63-67.582,185.452-67.582z
			 M186.142-75.723c-3.294,0-5.261,1.468-5.261,3.925v0.05c0,2.482,2.3,3.78,4.571,3.78c2.345,0,3.721-1.152,4.461-2.121l0.345-0.45
			v1.728c0,0.402,0.304,0.695,0.721,0.695c0.419,0,0.721-0.313,0.721-0.746v-6.979c0-1.55-0.421-2.758-1.252-3.59
			c-0.893-0.896-2.233-1.349-3.981-1.349c-1.471,0-2.733,0.261-4.096,0.849c-0.197,0.08-0.402,0.32-0.402,0.611
			c0,0.332,0.303,0.622,0.648,0.622c0.079,0,0.177-0.021,0.273-0.06c1.092-0.49,2.2-0.73,3.379-0.73c2.574,0,3.991,1.304,3.991,3.67
			v0.698l-0.245-0.069C189.027-75.467,187.876-75.723,186.142-75.723z M185.821-69.086c-1.969,0-3.4-1.151-3.4-2.735v-0.049
			c0-1.772,1.465-2.831,3.92-2.831c1.285,0,2.53,0.18,3.807,0.55l0.138,0.04v1.377C190.285-70.653,188.367-69.086,185.821-69.086z
			 M186.341-74.315c-2.212,0-3.536,0.915-3.536,2.446v0.049c0,1.615,1.564,2.351,3.017,2.351c2.325,0,4.076-1.402,4.076-3.264
			v-1.088C188.708-74.154,187.542-74.315,186.341-74.315z"/>
	</g>
	<g>
		<path fill="#BD9448" d="M195.931-79.96c0-0.52,0.422-0.962,0.943-0.962c0.54,0,0.96,0.418,0.96,0.962v1.38
			c0.838-1.38,2.17-2.493,4.367-2.493c3.083,0,4.884,2.073,4.884,5.106v7.079c0,0.543-0.42,0.962-0.937,0.962
			c-0.543,0-0.96-0.418-0.96-0.962v-6.609c0-2.37-1.285-3.848-3.53-3.848c-2.195,0-3.824,1.603-3.824,3.997v6.462
			c0,0.543-0.396,0.962-0.935,0.962c-0.545,0-0.965-0.419-0.965-0.962V-79.96H195.931z"/>
		<path fill="#BD9448" d="M206.148-67.731c-0.646,0-1.152-0.507-1.152-1.154v-6.61c0-2.289-1.249-3.656-3.338-3.656
			c-2.141,0-3.632,1.564-3.632,3.805v6.462c0,0.658-0.483,1.154-1.127,1.154c-0.65,0-1.157-0.507-1.157-1.154v-11.074
			c0-0.638,0.507-1.154,1.132-1.154c0.647,0,1.152,0.507,1.152,1.154v0.751c1.023-1.364,2.424-2.056,4.175-2.056
			c3.083,0,5.077,2.081,5.077,5.299v7.079C207.277-68.239,206.782-67.731,206.148-67.731z M201.658-79.536
			c2.332,0,3.722,1.511,3.722,4.04v6.61c0,0.437,0.33,0.77,0.769,0.77c0.417,0,0.744-0.339,0.744-0.77v-7.079
			c0-3.032-1.798-4.915-4.691-4.915c-1.821,0-3.235,0.807-4.203,2.401l-0.356,0.585v-2.065c0-0.44-0.33-0.77-0.768-0.77
			c-0.405,0-0.748,0.352-0.748,0.77v11.074c0,0.438,0.332,0.77,0.771,0.77c0.433,0,0.744-0.324,0.744-0.77v-6.462
			C197.642-77.814,199.293-79.536,201.658-79.536z"/>
	</g>
	<g>
		<path fill="#BD9448" d="M210.166-71.748v-0.05c0-2.688,2.217-4.118,5.452-4.118c1.63,0,2.789,0.223,3.924,0.542v-0.444
			c0-2.295-1.408-3.478-3.801-3.478c-1.284,0-2.365,0.295-3.305,0.715c-0.123,0.05-0.246,0.074-0.345,0.074
			c-0.444,0-0.841-0.369-0.841-0.814c0-0.394,0.273-0.69,0.52-0.789c1.255-0.542,2.539-0.864,4.168-0.864
			c1.802,0,3.185,0.469,4.122,1.406c0.863,0.864,1.306,2.098,1.306,3.727v6.979c0,0.545-0.393,0.938-0.912,0.938
			c-0.542,0-0.912-0.393-0.912-0.887v-1.159c-0.889,1.159-2.368,2.196-4.61,2.196C212.56-67.773,210.166-69.132,210.166-71.748z
			 M219.568-72.734v-1.232c-0.939-0.273-2.2-0.542-3.75-0.542c-2.393,0-3.727,1.036-3.727,2.639v0.049
			c0,1.603,1.481,2.543,3.204,2.543C217.642-69.278,219.568-70.71,219.568-72.734z"/>
		<path fill="#BD9448" d="M214.932-67.582c-2.465,0-4.958-1.43-4.958-4.165v-0.05c0-2.657,2.163-4.31,5.645-4.31
			c1.64,0,2.807,0.233,3.731,0.482v-0.192c0-2.15-1.249-3.286-3.608-3.286c-1.119,0-2.173,0.228-3.227,0.699
			c-0.146,0.06-0.294,0.091-0.423,0.091c-0.559,0-1.032-0.46-1.032-1.006c0-0.488,0.331-0.842,0.639-0.966
			c1.405-0.607,2.714-0.878,4.24-0.878c1.856,0,3.288,0.492,4.258,1.463c0.903,0.905,1.362,2.205,1.362,3.861v6.979
			c0,0.644-0.474,1.13-1.104,1.13c-0.63,0-1.104-0.465-1.104-1.079v-0.632C218.5-68.518,217.104-67.582,214.932-67.582z
			 M215.618-75.723c-3.295,0-5.26,1.468-5.26,3.925v0.05c0,2.482,2.299,3.78,4.573,3.78c2.341,0,3.716-1.152,4.455-2.121l0.347-0.45
			v1.728c0,0.402,0.302,0.695,0.721,0.695c0.417,0,0.721-0.313,0.721-0.746v-6.979c0-1.552-0.421-2.76-1.249-3.59
			c-0.895-0.896-2.236-1.349-3.986-1.349c-1.472,0-2.734,0.261-4.091,0.849c-0.198,0.08-0.403,0.32-0.403,0.611
			c0,0.332,0.301,0.622,0.647,0.622c0.08,0,0.179-0.021,0.275-0.06c1.096-0.49,2.203-0.73,3.375-0.73c2.574,0,3.99,1.304,3.99,3.67
			v0.698l-0.243-0.069C218.505-75.467,217.355-75.723,215.618-75.723z M215.296-69.086c-1.968,0-3.396-1.151-3.396-2.735v-0.049
			c0-1.772,1.465-2.831,3.919-2.831c1.286,0,2.528,0.18,3.805,0.55l0.14,0.04v1.377C219.761-70.653,217.841-69.086,215.296-69.086z
			 M215.818-74.315c-2.214,0-3.534,0.915-3.534,2.446v0.049c0,1.615,1.561,2.351,3.012,2.351c2.328,0,4.081-1.402,4.081-3.264
			v-1.088C218.187-74.154,217.021-74.315,215.818-74.315z"/>
	</g>
	<g>
		<path fill="#BD9448" d="M225.732-65.554c-0.296-0.148-0.497-0.444-0.497-0.791c0-0.419,0.424-0.837,0.866-0.837
			c0.17,0,0.296,0.048,0.416,0.123c1.336,0.888,2.863,1.38,4.516,1.38c2.812,0,4.642-1.555,4.642-4.541v-1.503
			c-1.11,1.479-2.662,2.688-5.011,2.688c-3.057,0-5.996-2.293-5.996-5.969v-0.049c0-3.725,2.963-6.02,5.996-6.02
			c2.394,0,3.945,1.185,4.982,2.566v-1.454c0-0.52,0.396-0.962,0.938-0.962s0.96,0.444,0.96,0.962v9.694
			c0,1.973-0.591,3.48-1.63,4.516c-1.131,1.134-2.832,1.701-4.856,1.701C229.11-64.049,227.337-64.566,225.732-65.554z
			 M235.722-75.027v-0.049c0-2.614-2.268-4.317-4.687-4.317c-2.418,0-4.414,1.679-4.414,4.292v0.049
			c0,2.566,2.046,4.342,4.414,4.342C233.454-70.71,235.722-72.462,235.722-75.027z"/>
		<path fill="#BD9448" d="M231.062-63.856c-1.949,0-3.775-0.517-5.43-1.534c-0.355-0.174-0.588-0.543-0.588-0.951
			c0-0.531,0.516-1.029,1.058-1.029c0.19,0,0.353,0.045,0.52,0.151c1.349,0.899,2.833,1.353,4.414,1.353
			c2.827,0,4.448-1.585,4.448-4.35v-0.953c-1.324,1.566-2.906,2.328-4.817,2.328c-3.041,0-6.187-2.303-6.187-6.161v-0.049
			c0-3.888,3.146-6.212,6.187-6.212c1.915,0,3.523,0.744,4.79,2.213v-0.908c0-0.647,0.495-1.154,1.132-1.154
			c0.633,0,1.152,0.518,1.152,1.154v9.694c0,1.969-0.567,3.533-1.688,4.65C234.907-64.464,233.181-63.856,231.062-63.856z
			 M226.102-66.987c-0.335,0-0.674,0.324-0.674,0.646c0,0.261,0.15,0.498,0.391,0.615c1.608,0.99,3.366,1.486,5.243,1.486
			c2.015,0,3.646-0.567,4.721-1.646c1.046-1.044,1.574-2.518,1.574-4.38v-9.694c0-0.425-0.347-0.77-0.769-0.77
			c-0.419,0-0.748,0.338-0.748,0.77v2.031l-0.345-0.461c-1.239-1.652-2.863-2.49-4.831-2.49c-2.853,0-5.804,2.179-5.804,5.828v0.049
			c0,3.617,2.951,5.777,5.804,5.777c1.952,0,3.54-0.854,4.856-2.61l0.347-0.462v2.081c0,2.962-1.809,4.733-4.834,4.733
			c-1.658,0-3.213-0.478-4.624-1.412C226.311-66.961,226.217-66.987,226.102-66.987z M231.035-70.518
			c-2.585,0-4.606-1.993-4.606-4.534v-0.049c0-2.599,1.938-4.484,4.606-4.484c2.397,0,4.879,1.688,4.879,4.509v0.049
			C235.914-72.242,233.382-70.518,231.035-70.518z M231.035-79.201c-2.446,0-4.222,1.724-4.222,4.1v0.049
			c0,2.327,1.854,4.15,4.222,4.15c2.161,0,4.494-1.578,4.494-4.125v-0.049C235.529-77.658,233.244-79.201,231.035-79.201z"/>
	</g>
	<g>
		<path fill="#BD9448" d="M247.365-67.75c-3.502,0-6.365-2.69-6.365-6.637v-0.049c0-3.676,2.591-6.637,6.119-6.637
			c3.774,0,5.917,3.084,5.917,6.465c0,0.519-0.415,0.887-0.885,0.887h-9.228c0.273,2.764,2.217,4.32,4.487,4.32
			c1.582,0,2.744-0.62,3.682-1.482c0.146-0.125,0.316-0.223,0.539-0.223c0.47,0,0.841,0.373,0.841,0.815
			c0,0.223-0.101,0.444-0.298,0.618C250.966-68.515,249.537-67.75,247.365-67.75z M251.141-75.125
			c-0.199-2.32-1.533-4.342-4.073-4.342c-2.216,0-3.897,1.85-4.144,4.342H251.141z"/>
		<path fill="#BD9448" d="M247.365-67.558c-3.738,0-6.558-2.936-6.558-6.829v-0.049c0-3.829,2.773-6.83,6.312-6.83
			c4.012,0,6.109,3.349,6.109,6.658c0,0.605-0.475,1.079-1.077,1.079h-9.011c0.319,2.363,2.014,3.936,4.271,3.936
			c1.342,0,2.504-0.469,3.553-1.433c0.737-0.632,1.7-0.051,1.7,0.733c0,0.284-0.129,0.555-0.361,0.762
			C250.88-68.167,249.355-67.558,247.365-67.558z M247.12-80.879c-3.377,0-5.925,2.771-5.925,6.445v0.049
			c0,3.673,2.653,6.443,6.171,6.443c1.886,0,3.326-0.577,4.677-1.87c0.159-0.139,0.24-0.306,0.24-0.479
			c0-0.479-0.576-0.868-1.062-0.446c-1.121,1.027-2.366,1.529-3.811,1.529c-2.531,0-4.412-1.806-4.676-4.494l-0.022-0.21h9.438
			c0.344,0,0.696-0.26,0.696-0.695C252.848-77.724,250.88-80.879,247.12-80.879z M251.35-74.933h-8.637l0.022-0.211
			c0.261-2.657,2.044-4.515,4.332-4.515c2.355,0,4.028,1.773,4.266,4.517L251.35-74.933z M243.141-75.317h7.786
			c-0.229-1.952-1.352-3.958-3.86-3.958C245.043-79.275,243.452-77.658,243.141-75.317z"/>
	</g>
	<g>
		<path fill="#BD9448" d="M256.393-79.96c0-0.52,0.42-0.962,0.937-0.962c0.543,0,0.96,0.418,0.96,0.962v1.306
			c0.841-1.258,1.976-2.418,4.124-2.418c2.073,0,3.405,1.113,4.095,2.542c0.915-1.408,2.27-2.542,4.487-2.542
			c2.938,0,4.739,1.975,4.739,5.133v7.054c0,0.545-0.42,0.962-0.937,0.962c-0.545,0-0.965-0.417-0.965-0.962v-6.61
			c0-2.468-1.232-3.848-3.304-3.848c-1.924,0-3.501,1.431-3.501,3.946v6.513c0,0.543-0.419,0.962-0.965,0.962
			c-0.517,0-0.934-0.419-0.934-0.962v-6.659c0-2.395-1.258-3.801-3.284-3.801c-2.02,0-3.554,1.678-3.554,4.022v6.438
			c0,0.543-0.393,0.962-0.932,0.962c-0.545,0-0.965-0.419-0.965-0.962V-79.96H256.393z"/>
		<path fill="#BD9448" d="M274.798-67.731c-0.649,0-1.157-0.507-1.157-1.154v-6.61c0-2.323-1.133-3.656-3.111-3.656
			c-1.98,0-3.309,1.509-3.309,3.754v6.513c0,0.647-0.509,1.154-1.157,1.154c-0.632,0-1.126-0.507-1.126-1.154v-6.659
			c0-2.26-1.155-3.609-3.092-3.609c-1.947,0-3.361,1.61-3.361,3.83v6.438c0,0.658-0.483,1.154-1.126,1.154
			c-0.647,0-1.157-0.507-1.157-1.154v-11.074c0-0.626,0.517-1.154,1.128-1.154c0.648,0,1.155,0.507,1.155,1.154v0.706
			c0.78-1.019,1.938-2.011,3.931-2.011c1.817,0,3.266,0.834,4.116,2.361c1.128-1.588,2.591-2.361,4.465-2.361
			c3.043,0,4.932,2.042,4.932,5.325v7.054C275.927-68.239,275.43-67.731,274.798-67.731z M270.526-79.536
			c2.191,0,3.497,1.511,3.497,4.04v6.61c0,0.437,0.333,0.77,0.771,0.77c0.419,0,0.746-0.339,0.746-0.77v-7.054
			c0-3.047-1.742-4.941-4.548-4.941c-1.837,0-3.252,0.802-4.326,2.456l-0.187,0.286l-0.146-0.308
			c-0.757-1.569-2.149-2.433-3.922-2.433c-2.124,0-3.193,1.181-3.962,2.333l-0.353,0.528v-1.94c0-0.44-0.331-0.77-0.769-0.77
			c-0.405,0-0.745,0.352-0.745,0.77v11.074c0,0.438,0.332,0.77,0.773,0.77c0.428,0,0.74-0.324,0.74-0.77v-6.438
			c0-2.442,1.575-4.214,3.747-4.214c2.145,0,3.478,1.531,3.478,3.993v6.659c0,0.433,0.324,0.77,0.739,0.77
			c0.44,0,0.773-0.332,0.773-0.77v-6.513C266.835-77.835,268.354-79.536,270.526-79.536z"/>
	</g>
	<g>
		<path fill="#BD9448" d="M285.43-67.75c-3.506,0-6.366-2.69-6.366-6.637v-0.049c0-3.676,2.587-6.637,6.114-6.637
			c3.775,0,5.924,3.084,5.924,6.465c0,0.519-0.419,0.887-0.889,0.887h-9.227c0.272,2.764,2.216,4.32,4.487,4.32
			c1.58,0,2.743-0.62,3.681-1.482c0.147-0.125,0.318-0.223,0.544-0.223c0.468,0,0.839,0.373,0.839,0.815
			c0,0.223-0.101,0.444-0.296,0.618C289.028-68.515,287.596-67.75,285.43-67.75z M289.2-75.125c-0.197-2.32-1.525-4.342-4.07-4.342
			c-2.217,0-3.896,1.85-4.143,4.342H289.2z"/>
		<path fill="#BD9448" d="M285.43-67.558c-3.74,0-6.559-2.936-6.559-6.829v-0.049c0-3.829,2.771-6.83,6.307-6.83
			c4.015,0,6.115,3.349,6.115,6.658c0,0.605-0.476,1.079-1.08,1.079h-9.01c0.318,2.363,2.012,3.936,4.271,3.936
			c1.343,0,2.505-0.469,3.549-1.431c0.145-0.122,0.36-0.274,0.674-0.274c0.569,0,1.031,0.452,1.031,1.007
			c0,0.285-0.129,0.553-0.36,0.76C288.941-68.167,287.417-67.558,285.43-67.558z M285.181-80.879c-3.377,0-5.924,2.771-5.924,6.445
			v0.049c0,3.673,2.655,6.443,6.173,6.443c1.882,0,3.324-0.577,4.68-1.87c0.154-0.139,0.235-0.306,0.235-0.479
			c0-0.482-0.567-0.865-1.063-0.446c-1.115,1.027-2.362,1.528-3.807,1.528c-2.533,0-4.412-1.806-4.678-4.494l-0.022-0.21h9.439
			c0.343,0,0.696-0.26,0.696-0.695C290.909-77.724,288.941-80.879,285.181-80.879z M289.41-74.933h-8.636l0.022-0.211
			c0.263-2.657,2.044-4.515,4.333-4.515c2.355,0,4.031,1.773,4.262,4.517L289.41-74.933z M281.203-75.317h7.783
			c-0.225-1.952-1.348-3.958-3.856-3.958C283.105-79.275,281.514-77.658,281.203-75.317z"/>
	</g>
	<g>
		<path fill="#BD9448" d="M294.451-79.96c0-0.52,0.422-0.962,0.94-0.962c0.544,0,0.961,0.418,0.961,0.962v1.38
			c0.839-1.38,2.169-2.493,4.364-2.493c3.089,0,4.89,2.073,4.89,5.106v7.079c0,0.543-0.419,0.962-0.938,0.962
			c-0.544,0-0.965-0.418-0.965-0.962v-6.609c0-2.37-1.284-3.848-3.526-3.848c-2.194,0-3.822,1.603-3.822,3.997v6.462
			c0,0.543-0.394,0.962-0.94,0.962c-0.54,0-0.962-0.419-0.962-0.962L294.451-79.96L294.451-79.96z"/>
		<path fill="#BD9448" d="M304.667-67.731c-0.648,0-1.155-0.507-1.155-1.154v-6.61c0-2.289-1.249-3.656-3.335-3.656
			c-2.141,0-3.632,1.564-3.632,3.805v6.462c0,0.658-0.486,1.154-1.132,1.154c-0.646,0-1.154-0.507-1.154-1.154v-11.074
			c0-0.638,0.509-1.154,1.133-1.154c0.647,0,1.153,0.507,1.153,1.154v0.751c1.021-1.364,2.422-2.056,4.172-2.056
			c3.086,0,5.082,2.081,5.082,5.299v7.079C305.799-68.239,305.301-67.731,304.667-67.731z M300.177-79.536
			c2.329,0,3.719,1.511,3.719,4.04v6.61c0,0.437,0.332,0.77,0.771,0.77c0.417,0,0.744-0.339,0.744-0.77v-7.079
			c0-3.032-1.799-4.915-4.695-4.915c-1.845,0-3.22,0.786-4.201,2.401l-0.354,0.585v-2.065c0-0.44-0.33-0.77-0.769-0.77
			c-0.405,0-0.748,0.352-0.748,0.77v11.074c0,0.438,0.331,0.77,0.77,0.77c0.434,0,0.747-0.324,0.747-0.77v-6.462
			C296.16-77.814,297.812-79.536,300.177-79.536z"/>
	</g>
	<g>
		<path fill="#BD9448" d="M310.312-71.426v-7.696h-1.035c-0.444,0-0.837-0.395-0.837-0.837c0-0.471,0.393-0.839,0.837-0.839h1.035
			v-3.012c0-0.518,0.396-0.962,0.937-0.962c0.517,0,0.964,0.444,0.964,0.962v3.009h3.302c0.472,0,0.864,0.396,0.864,0.84
			c0,0.467-0.396,0.837-0.864,0.837h-3.302v7.45c0,1.554,0.864,2.122,2.145,2.122c0.668,0,1.015-0.171,1.159-0.171
			c0.445,0,0.816,0.368,0.816,0.813c0,0.346-0.221,0.616-0.542,0.739c-0.545,0.224-1.135,0.347-1.876,0.347
			C311.868-67.822,310.312-68.836,310.312-71.426z"/>
		<path fill="#BD9448" d="M313.916-67.629c-2.447,0-3.795-1.349-3.795-3.795v-7.504h-0.844c-0.548,0-1.029-0.481-1.029-1.029
			c0-0.56,0.471-1.031,1.029-1.031h0.844v-2.821c0-0.646,0.495-1.154,1.128-1.154c0.628,0,1.156,0.529,1.156,1.154v2.817h3.109
			c0.573,0,1.057,0.473,1.057,1.032c0,0.568-0.475,1.029-1.057,1.029h-3.109v7.258c0,1.316,0.621,1.93,1.952,1.93
			c0.431,0,0.719-0.076,0.908-0.125c0.105-0.027,0.18-0.048,0.251-0.048c0.557,0,1.008,0.45,1.008,1.005
			c0,0.409-0.253,0.76-0.664,0.917C315.26-67.747,314.642-67.629,313.916-67.629z M309.277-80.607c-0.352,0-0.646,0.296-0.646,0.647
			c0,0.337,0.307,0.646,0.646,0.646h1.228v7.888c0,2.818,1.855,3.41,3.411,3.41c0.674,0,1.247-0.104,1.806-0.333
			c0.265-0.099,0.419-0.31,0.419-0.561c0-0.337-0.287-0.622-0.624-0.622c-0.022,0-0.095,0.021-0.155,0.034
			c-0.198,0.051-0.525,0.137-1.004,0.137c-1.527,0-2.337-0.8-2.337-2.313v-7.642h3.494c0.372,0,0.673-0.289,0.673-0.645
			c0-0.346-0.315-0.647-0.673-0.647h-3.494v-3.202c0-0.41-0.359-0.77-0.771-0.77c-0.417,0-0.744,0.338-0.744,0.77v3.202h-1.228
			V-80.607z"/>
	</g>
</g>
<g>
	<path fill="#FFFFFF" d="M85.189,49.591c-0.363,0.874-0.821,1.312-1.376,1.312c-0.299,0-0.549-0.086-0.752-0.256
		c-0.203-0.171-0.421-0.533-0.656-1.088l-6.784-19.456c-0.171-0.448-0.213-0.8-0.128-1.056c0.085-0.256,0.309-0.448,0.672-0.576
		c0.853-0.341,1.429-0.053,1.728,0.864l5.952,17.312l5.888-17.376c0.149-0.426,0.362-0.693,0.64-0.8
		c0.277-0.106,0.565-0.139,0.864-0.096c0.384,0.043,0.661,0.192,0.832,0.448c0.17,0.256,0.149,0.661-0.064,1.216L85.189,49.591z"/>
	<path fill="#FFFFFF" d="M95.461,29.687c0-0.448,0.155-0.832,0.464-1.152c0.309-0.32,0.698-0.48,1.168-0.48
		c0.448,0,0.826,0.16,1.136,0.48c0.309,0.32,0.464,0.704,0.464,1.152c0,0.448-0.155,0.832-0.464,1.152
		c-0.31,0.32-0.688,0.48-1.136,0.48c-0.47,0-0.859-0.16-1.168-0.48C95.616,30.519,95.461,30.135,95.461,29.687z M98.31,49.623
		c0,0.853-0.405,1.279-1.216,1.279c-0.832,0-1.248-0.427-1.248-1.279V35.031c0-0.491,0.117-0.837,0.352-1.04
		c0.234-0.203,0.533-0.304,0.896-0.304c0.362,0,0.656,0.096,0.88,0.288s0.336,0.544,0.336,1.056V49.623z"/>
	<path fill="#FFFFFF" d="M114.822,47.606c-0.427,0.96-1.088,1.776-1.984,2.448s-2.016,1.008-3.36,1.008
		c-1.024,0-1.958-0.208-2.8-0.624c-0.843-0.416-1.574-1.003-2.192-1.76c-0.619-0.757-1.099-1.669-1.44-2.736
		c-0.341-1.066-0.512-2.251-0.512-3.552c0-1.579,0.203-2.933,0.608-4.064c0.405-1.13,0.938-2.059,1.6-2.784
		c0.661-0.725,1.424-1.253,2.288-1.584c0.864-0.331,1.765-0.496,2.704-0.496c1.237,0.021,2.309,0.406,3.216,1.152
		c0.906,0.747,1.552,1.643,1.936,2.688v-9.088c0-0.341,0.101-0.64,0.304-0.896c0.203-0.256,0.517-0.384,0.944-0.384
		c0.426,0,0.736,0.128,0.928,0.384c0.192,0.256,0.288,0.555,0.288,0.896v21.409c0,0.341-0.091,0.635-0.272,0.879
		c-0.182,0.246-0.507,0.369-0.976,0.369s-0.8-0.123-0.992-0.369c-0.192-0.244-0.288-0.538-0.288-0.879V47.606z M105.094,42.391
		c0,2.048,0.448,3.648,1.344,4.8c0.896,1.152,2.155,1.728,3.776,1.728c0.789,0,1.477-0.164,2.064-0.496
		c0.586-0.33,1.072-0.788,1.456-1.375c0.384-0.587,0.672-1.275,0.864-2.064s0.288-1.643,0.288-2.561c0-0.916-0.107-1.786-0.32-2.607
		c-0.213-0.821-0.523-1.536-0.928-2.144c-0.406-0.608-0.901-1.093-1.488-1.456c-0.587-0.362-1.253-0.544-2-0.544
		c-0.875,0-1.627,0.155-2.256,0.464c-0.629,0.309-1.152,0.763-1.568,1.36c-0.416,0.598-0.726,1.307-0.928,2.128
		C105.195,40.444,105.094,41.367,105.094,42.391z"/>
	<path fill="#FFFFFF" d="M127.974,51.223c-1.238,0-2.315-0.234-3.232-0.704c-0.917-0.469-1.68-1.104-2.288-1.903
		c-0.608-0.801-1.062-1.734-1.36-2.801s-0.448-2.197-0.448-3.393c0-1.193,0.154-2.335,0.464-3.423
		c0.309-1.088,0.768-2.048,1.376-2.88s1.371-1.493,2.288-1.984c0.917-0.491,1.984-0.736,3.2-0.736c1.152,0,2.144,0.214,2.976,0.64
		c0.832,0.427,1.509,0.992,2.032,1.696c0.522,0.704,0.912,1.52,1.168,2.448c0.256,0.928,0.384,1.904,0.384,2.928
		c0,0.79-0.101,1.35-0.304,1.681c-0.203,0.33-0.582,0.496-1.136,0.496h-9.984c-0.021,0.683,0.075,1.365,0.288,2.047
		c0.213,0.684,0.528,1.303,0.944,1.856c0.416,0.556,0.933,1.009,1.552,1.36c0.618,0.352,1.333,0.527,2.144,0.527
		c1.045,0,1.925-0.144,2.64-0.432s1.339-0.74,1.872-1.359c0.213-0.234,0.416-0.379,0.608-0.433c0.192-0.053,0.363-0.059,0.512-0.017
		c0.149,0.043,0.272,0.123,0.368,0.24c0.096,0.118,0.165,0.23,0.208,0.336c0.149,0.256,0.123,0.598-0.08,1.024
		c-0.203,0.427-0.576,0.849-1.12,1.265s-1.243,0.772-2.096,1.071C130.096,51.073,129.104,51.223,127.974,51.223z M132.197,41.398
		c0-0.682-0.059-1.37-0.176-2.064c-0.118-0.693-0.336-1.322-0.656-1.888c-0.32-0.565-0.763-1.024-1.328-1.376
		c-0.565-0.352-1.286-0.528-2.16-0.528c-0.939,0-1.712,0.203-2.32,0.608c-0.608,0.406-1.094,0.902-1.456,1.488
		c-0.363,0.587-0.619,1.221-0.768,1.904c-0.149,0.683-0.224,1.302-0.224,1.856H132.197z"/>
	<path fill="#FFFFFF" d="M144.773,33.367c1.365,0,2.538,0.246,3.52,0.736c0.981,0.491,1.792,1.152,2.432,1.984
		c0.64,0.832,1.109,1.792,1.408,2.88c0.298,1.088,0.448,2.24,0.448,3.455c0,1.217-0.155,2.363-0.464,3.441
		c-0.31,1.076-0.784,2.021-1.424,2.832c-0.64,0.811-1.451,1.45-2.432,1.92c-0.981,0.469-2.144,0.703-3.488,0.703
		c-1.344,0-2.507-0.24-3.488-0.72c-0.981-0.479-1.787-1.13-2.416-1.952c-0.629-0.82-1.093-1.771-1.392-2.848
		s-0.448-2.225-0.448-3.44s0.144-2.368,0.432-3.456c0.288-1.088,0.746-2.043,1.376-2.864c0.629-0.821,1.429-1.472,2.4-1.952
		C142.208,33.606,143.386,33.367,144.773,33.367z M144.773,49.175c0.853,0,1.61-0.16,2.272-0.479
		c0.661-0.32,1.216-0.773,1.664-1.361c0.448-0.586,0.789-1.295,1.024-2.127c0.234-0.832,0.352-1.75,0.352-2.752
		c0-1.024-0.107-1.958-0.32-2.8c-0.213-0.843-0.544-1.568-0.992-2.176c-0.448-0.608-1.008-1.077-1.68-1.408
		s-1.467-0.496-2.384-0.496c-0.918,0-1.707,0.171-2.368,0.512c-0.662,0.342-1.2,0.816-1.616,1.424s-0.72,1.328-0.912,2.16
		c-0.192,0.832-0.288,1.74-0.288,2.72c0,1.003,0.112,1.92,0.336,2.752s0.554,1.547,0.992,2.145c0.437,0.598,0.981,1.061,1.632,1.392
		C143.136,49.01,143.898,49.175,144.773,49.175z"/>
	<path fill="#FFFFFF" d="M178.725,49.078c0.064,0.448,0.048,0.859-0.048,1.232c-0.096,0.373-0.443,0.57-1.04,0.592
		c-0.384,0-0.662-0.111-0.832-0.336c-0.171-0.224-0.299-0.603-0.384-1.136l-1.856-12.768c-0.064-0.405-0.144-0.907-0.24-1.504
		c-0.096-0.597-0.203-1.115-0.32-1.552c-0.117-0.437-0.246-0.72-0.384-0.848c-0.139-0.128-0.283,0.064-0.432,0.576L168.42,49.75
		c-0.107,0.406-0.24,0.699-0.4,0.881c-0.16,0.181-0.411,0.271-0.752,0.271c-0.363,0-0.619-0.08-0.768-0.24
		c-0.149-0.16-0.288-0.463-0.416-0.912c-0.811-2.752-1.627-5.482-2.448-8.191c-0.822-2.709-1.616-5.44-2.384-8.192
		c-0.149-0.512-0.304-0.768-0.464-0.768s-0.283,0.256-0.368,0.768l-2.368,16c-0.064,0.49-0.187,0.869-0.368,1.135
		c-0.182,0.268-0.518,0.4-1.008,0.4c-0.811,0-1.12-0.533-0.928-1.6l2.912-19.04c0.085-0.64,0.293-1.12,0.624-1.44
		c0.33-0.32,0.762-0.48,1.296-0.48c0.533,0,0.976,0.139,1.328,0.416c0.352,0.277,0.634,0.768,0.848,1.472l4.544,16.032l4.448-16.064
		c0.192-0.683,0.464-1.163,0.816-1.44s0.784-0.416,1.296-0.416c0.512,0,0.944,0.16,1.296,0.48c0.352,0.32,0.581,0.811,0.688,1.472
		L178.725,49.078z"/>
	<path fill="#FFFFFF" d="M193.541,47.606c-0.512,1.11-1.189,1.964-2.032,2.56c-0.843,0.598-1.915,0.896-3.216,0.896
		c-1.045,0-2-0.208-2.864-0.624c-0.864-0.416-1.605-1.003-2.224-1.76c-0.619-0.757-1.099-1.669-1.44-2.736
		c-0.341-1.066-0.512-2.251-0.512-3.552c0-1.579,0.197-2.933,0.592-4.064c0.395-1.13,0.917-2.059,1.568-2.784
		c0.65-0.725,1.413-1.253,2.288-1.584c0.875-0.331,1.792-0.496,2.752-0.496c1.28,0.021,2.357,0.395,3.232,1.12
		c0.875,0.726,1.514,1.632,1.92,2.72v-2.336c0-0.341,0.101-0.64,0.304-0.896c0.203-0.256,0.517-0.384,0.944-0.384
		c0.426,0.021,0.736,0.155,0.928,0.4c0.192,0.246,0.288,0.539,0.288,0.88v14.624c0,0.341-0.091,0.635-0.272,0.88
		c-0.182,0.245-0.507,0.379-0.976,0.4c-0.469,0-0.8-0.129-0.992-0.385c-0.192-0.256-0.288-0.555-0.288-0.896V47.606z M183.78,42.391
		c0.021,2.048,0.48,3.648,1.376,4.8c0.896,1.152,2.155,1.728,3.776,1.728c0.81,0,1.509-0.164,2.096-0.496
		c0.586-0.33,1.072-0.788,1.456-1.375s0.672-1.275,0.864-2.064c0.192-0.789,0.288-1.643,0.288-2.561c0-0.916-0.107-1.786-0.32-2.607
		c-0.213-0.821-0.523-1.536-0.928-2.144c-0.405-0.608-0.901-1.093-1.488-1.456c-0.587-0.362-1.264-0.544-2.032-0.544
		c-0.875,0-1.627,0.155-2.256,0.464c-0.629,0.309-1.157,0.763-1.584,1.36c-0.427,0.598-0.741,1.307-0.944,2.128
		C183.881,40.444,183.78,41.367,183.78,42.391z"/>
	<path fill="#FFFFFF" d="M210.884,40.311c0-1.728-0.331-2.944-0.992-3.648s-1.632-1.056-2.911-1.056c-0.556,0-1.11,0.08-1.664,0.24
		c-0.556,0.16-1.057,0.421-1.505,0.784c-0.447,0.363-0.815,0.832-1.104,1.408s-0.432,1.28-0.432,2.112v9.6
		c0,0.769-0.406,1.152-1.217,1.152c-0.362,0-0.655-0.107-0.88-0.32c-0.224-0.213-0.336-0.49-0.336-0.832V34.838
		c0-0.384,0.112-0.672,0.336-0.864c0.225-0.192,0.528-0.288,0.912-0.288c0.789,0,1.185,0.384,1.185,1.152v1.792
		c0.191-0.384,0.452-0.768,0.783-1.152c0.331-0.384,0.721-0.73,1.168-1.04c0.448-0.309,0.949-0.56,1.505-0.752
		c0.554-0.192,1.151-0.288,1.792-0.288c0.832,0,1.6,0.118,2.304,0.352c0.704,0.235,1.312,0.592,1.824,1.072
		c0.512,0.48,0.917,1.093,1.216,1.84c0.298,0.747,0.448,1.632,0.448,2.656V49.75c0,0.769-0.406,1.152-1.217,1.152
		s-1.216-0.384-1.216-1.152V40.311z"/>
	<path fill="#FFFFFF" d="M228.58,47.606c-0.512,1.11-1.189,1.964-2.031,2.56c-0.844,0.598-1.915,0.896-3.217,0.896
		c-1.045,0-2-0.208-2.863-0.624c-0.864-0.416-1.605-1.003-2.225-1.76s-1.099-1.669-1.439-2.736
		c-0.342-1.066-0.513-2.251-0.513-3.552c0-1.579,0.197-2.933,0.593-4.064c0.395-1.13,0.917-2.059,1.567-2.784
		c0.65-0.725,1.413-1.253,2.288-1.584c0.875-0.331,1.792-0.496,2.752-0.496c1.28,0.021,2.357,0.395,3.232,1.12
		c0.874,0.726,1.515,1.632,1.92,2.72v-2.336c0-0.341,0.101-0.64,0.304-0.896c0.203-0.256,0.518-0.384,0.944-0.384
		c0.427,0.021,0.735,0.155,0.928,0.4c0.192,0.246,0.288,0.539,0.288,0.88v14.624c0,0.341-0.091,0.635-0.272,0.88
		c-0.181,0.245-0.507,0.379-0.976,0.4c-0.47,0-0.8-0.129-0.992-0.385c-0.191-0.256-0.288-0.555-0.288-0.896V47.606z M218.82,42.391
		c0.021,2.048,0.48,3.648,1.376,4.8c0.896,1.152,2.154,1.728,3.776,1.728c0.811,0,1.509-0.164,2.096-0.496
		c0.587-0.33,1.072-0.788,1.456-1.375s0.672-1.275,0.864-2.064c0.191-0.789,0.288-1.643,0.288-2.561c0-0.916-0.107-1.786-0.32-2.607
		c-0.214-0.821-0.523-1.536-0.928-2.144c-0.406-0.608-0.901-1.093-1.488-1.456c-0.587-0.362-1.264-0.544-2.032-0.544
		c-0.875,0-1.627,0.155-2.256,0.464c-0.63,0.309-1.157,0.763-1.584,1.36c-0.427,0.598-0.741,1.307-0.944,2.128
		C218.922,40.444,218.82,41.367,218.82,42.391z"/>
	<path fill="#FFFFFF" d="M248.836,49.975c0,0.938-0.182,1.792-0.544,2.561c-0.363,0.768-0.875,1.428-1.536,1.983
		c-0.661,0.555-1.472,0.981-2.432,1.28s-2.027,0.447-3.2,0.447c-0.555,0-1.152-0.053-1.792-0.16
		c-0.64-0.106-1.243-0.261-1.808-0.463c-0.565-0.203-1.057-0.443-1.473-0.721s-0.688-0.587-0.815-0.928
		c-0.171-0.191-0.268-0.438-0.288-0.736c-0.021-0.299,0.096-0.598,0.352-0.896c0.341-0.448,0.736-0.438,1.185,0.032
		c0.49,0.469,1.168,0.857,2.031,1.168c0.864,0.309,1.809,0.441,2.832,0.399c1.493-0.043,2.693-0.411,3.601-1.104
		c0.906-0.693,1.359-1.647,1.359-2.863v-2.464c-0.49,1.046-1.205,1.819-2.144,2.319c-0.939,0.502-2.059,0.752-3.36,0.752
		c-1.003,0-1.925-0.196-2.768-0.592c-0.843-0.395-1.568-0.959-2.176-1.695c-0.608-0.736-1.088-1.621-1.44-2.656
		c-0.352-1.035-0.528-2.203-0.528-3.504c0-1.579,0.208-2.917,0.624-4.016c0.416-1.099,0.96-1.995,1.633-2.688
		c0.672-0.693,1.439-1.194,2.304-1.504c0.864-0.309,1.744-0.464,2.64-0.464c1.28,0.021,2.379,0.358,3.296,1.008
		c0.917,0.651,1.579,1.52,1.984,2.608v-2.112c0-0.341,0.101-0.64,0.304-0.896c0.203-0.256,0.518-0.384,0.944-0.384
		c0.405,0,0.709,0.128,0.912,0.384c0.202,0.256,0.304,0.555,0.304,0.896V49.975z M236.42,42.103c0,2.005,0.464,3.531,1.393,4.576
		c0.928,1.046,2.128,1.567,3.6,1.567c1.6,0,2.826-0.484,3.68-1.455s1.28-2.523,1.28-4.656c-0.021-2.133-0.48-3.739-1.376-4.816
		c-0.896-1.077-2.112-1.616-3.648-1.616c-1.558,0-2.768,0.565-3.632,1.696C236.852,38.53,236.42,40.098,236.42,42.103z"/>
	<path fill="#FFFFFF" d="M259.331,51.223c-1.237,0-2.314-0.234-3.231-0.704c-0.918-0.469-1.681-1.104-2.288-1.903
		c-0.608-0.801-1.062-1.734-1.36-2.801s-0.448-2.197-0.448-3.393c0-1.193,0.155-2.335,0.465-3.423
		c0.309-1.088,0.768-2.048,1.376-2.88c0.607-0.832,1.37-1.493,2.288-1.984c0.917-0.491,1.983-0.736,3.199-0.736
		c1.152,0,2.145,0.214,2.977,0.64c0.832,0.427,1.509,0.992,2.031,1.696c0.523,0.704,0.912,1.52,1.169,2.448
		c0.256,0.928,0.384,1.904,0.384,2.928c0,0.79-0.102,1.35-0.305,1.681c-0.202,0.33-0.581,0.496-1.136,0.496h-9.983
		c-0.021,0.683,0.074,1.365,0.287,2.047c0.214,0.684,0.528,1.303,0.944,1.856c0.416,0.556,0.934,1.009,1.552,1.36
		c0.619,0.352,1.333,0.527,2.145,0.527c1.045,0,1.925-0.144,2.64-0.432s1.339-0.74,1.872-1.359c0.213-0.234,0.416-0.379,0.608-0.433
		c0.191-0.053,0.362-0.059,0.512-0.017c0.149,0.043,0.272,0.123,0.368,0.24c0.096,0.118,0.165,0.23,0.208,0.336
		c0.148,0.256,0.122,0.598-0.08,1.024c-0.203,0.427-0.576,0.849-1.12,1.265s-1.243,0.772-2.096,1.071
		C261.454,51.073,260.462,51.223,259.331,51.223z M263.556,41.398c0-0.682-0.06-1.37-0.177-2.064
		c-0.117-0.693-0.336-1.322-0.655-1.888c-0.32-0.565-0.764-1.024-1.328-1.376c-0.565-0.352-1.286-0.528-2.16-0.528
		c-0.939,0-1.712,0.203-2.32,0.608c-0.607,0.406-1.093,0.902-1.456,1.488c-0.362,0.587-0.618,1.221-0.768,1.904
		c-0.149,0.683-0.224,1.302-0.224,1.856H263.556z"/>
	<path fill="#FFFFFF" d="M291.011,40.535c0-3.2-1.259-4.8-3.775-4.8c-0.619,0-1.2,0.086-1.744,0.256
		c-0.544,0.171-1.02,0.453-1.424,0.848c-0.405,0.395-0.726,0.912-0.96,1.552c-0.235,0.64-0.353,1.419-0.353,2.336v9.023
		c0,0.726-0.405,1.109-1.216,1.152c-0.832,0-1.248-0.384-1.248-1.152v-8.447c0-0.917-0.063-1.728-0.191-2.432
		c-0.129-0.704-0.348-1.291-0.656-1.76c-0.31-0.469-0.726-0.821-1.248-1.056c-0.523-0.234-1.189-0.352-2-0.352
		c-0.533,0-1.057,0.08-1.568,0.24c-0.512,0.16-0.976,0.432-1.392,0.816c-0.416,0.384-0.752,0.896-1.008,1.536
		c-0.257,0.64-0.385,1.44-0.385,2.4v9.055c0,0.769-0.427,1.152-1.279,1.152c-0.79,0-1.185-0.384-1.185-1.152V34.774
		c0-0.384,0.097-0.661,0.288-0.832c0.192-0.17,0.512-0.256,0.96-0.256c0.789,0,1.185,0.363,1.185,1.088v1.824
		c0.17-0.448,0.421-0.864,0.752-1.248c0.33-0.384,0.704-0.709,1.12-0.976c0.416-0.267,0.858-0.48,1.327-0.64
		c0.47-0.16,0.949-0.24,1.44-0.24c1.322,0,2.448,0.283,3.376,0.848c0.928,0.565,1.573,1.381,1.936,2.448
		c0.555-0.96,1.317-1.749,2.288-2.368c0.971-0.618,2.097-0.928,3.376-0.928c0.789,0,1.541,0.123,2.257,0.368
		c0.714,0.245,1.338,0.613,1.871,1.104s0.961,1.093,1.28,1.808c0.32,0.715,0.48,1.552,0.48,2.512V49.75
		c0,0.342-0.069,0.614-0.208,0.816c-0.14,0.203-0.422,0.314-0.849,0.336c-0.447,0-0.768-0.091-0.96-0.271
		c-0.191-0.182-0.288-0.475-0.288-0.881V40.535z"/>
	<path fill="#FFFFFF" d="M304.258,51.223c-1.237,0-2.314-0.234-3.231-0.704c-0.918-0.469-1.681-1.104-2.288-1.903
		c-0.608-0.801-1.062-1.734-1.36-2.801s-0.448-2.197-0.448-3.393c0-1.193,0.155-2.335,0.465-3.423
		c0.309-1.088,0.768-2.048,1.376-2.88c0.607-0.832,1.37-1.493,2.288-1.984c0.917-0.491,1.983-0.736,3.199-0.736
		c1.152,0,2.145,0.214,2.977,0.64c0.832,0.427,1.509,0.992,2.031,1.696c0.523,0.704,0.912,1.52,1.169,2.448
		c0.256,0.928,0.384,1.904,0.384,2.928c0,0.79-0.102,1.35-0.305,1.681c-0.202,0.33-0.581,0.496-1.136,0.496h-9.983
		c-0.021,0.683,0.074,1.365,0.287,2.047c0.214,0.684,0.528,1.303,0.944,1.856c0.416,0.556,0.934,1.009,1.552,1.36
		c0.619,0.352,1.333,0.527,2.145,0.527c1.045,0,1.925-0.144,2.64-0.432s1.339-0.74,1.872-1.359c0.213-0.234,0.416-0.379,0.608-0.433
		c0.191-0.053,0.362-0.059,0.512-0.017c0.149,0.043,0.272,0.123,0.368,0.24c0.096,0.118,0.165,0.23,0.208,0.336
		c0.148,0.256,0.122,0.598-0.08,1.024c-0.203,0.427-0.576,0.849-1.12,1.265s-1.243,0.772-2.096,1.071
		C306.381,51.073,305.389,51.223,304.258,51.223z M308.482,41.398c0-0.682-0.06-1.37-0.177-2.064
		c-0.117-0.693-0.336-1.322-0.655-1.888c-0.32-0.565-0.764-1.024-1.328-1.376c-0.565-0.352-1.286-0.528-2.16-0.528
		c-0.939,0-1.712,0.203-2.32,0.608c-0.607,0.406-1.093,0.902-1.456,1.488c-0.362,0.587-0.618,1.221-0.768,1.904
		c-0.149,0.683-0.224,1.302-0.224,1.856H308.482z"/>
	<path fill="#FFFFFF" d="M325.346,40.311c0-1.728-0.331-2.944-0.992-3.648s-1.632-1.056-2.911-1.056c-0.556,0-1.11,0.08-1.664,0.24
		c-0.556,0.16-1.057,0.421-1.505,0.784c-0.447,0.363-0.815,0.832-1.104,1.408s-0.432,1.28-0.432,2.112v9.6
		c0,0.769-0.406,1.152-1.217,1.152c-0.362,0-0.655-0.107-0.88-0.32c-0.224-0.213-0.336-0.49-0.336-0.832V34.838
		c0-0.384,0.112-0.672,0.336-0.864c0.225-0.192,0.528-0.288,0.912-0.288c0.789,0,1.185,0.384,1.185,1.152v1.792
		c0.191-0.384,0.452-0.768,0.783-1.152c0.331-0.384,0.721-0.73,1.168-1.04c0.448-0.309,0.949-0.56,1.505-0.752
		c0.554-0.192,1.151-0.288,1.792-0.288c0.832,0,1.6,0.118,2.304,0.352c0.704,0.235,1.312,0.592,1.824,1.072
		c0.512,0.48,0.917,1.093,1.216,1.84c0.298,0.747,0.448,1.632,0.448,2.656V49.75c0,0.769-0.406,1.152-1.217,1.152
		s-1.216-0.384-1.216-1.152V40.311z"/>
	<path fill="#FFFFFF" d="M335.554,36.438v9.632c0,0.512,0.068,0.971,0.208,1.377c0.138,0.404,0.373,0.725,0.704,0.959
		c0.33,0.235,0.815,0.353,1.455,0.353c0.491,0,0.917-0.075,1.28-0.224c0.362-0.149,0.715-0.299,1.057-0.449
		c0.384-0.17,0.714-0.239,0.991-0.207c0.277,0.031,0.438,0.229,0.48,0.592c0.063,0.342-0.027,0.662-0.272,0.96
		c-0.245,0.299-0.575,0.555-0.991,0.769c-0.416,0.213-0.896,0.383-1.44,0.512c-0.544,0.127-1.083,0.191-1.616,0.191
		c-0.64,0-1.222-0.069-1.744-0.207c-0.522-0.14-0.976-0.379-1.359-0.721c-0.385-0.341-0.684-0.789-0.896-1.344
		s-0.32-1.237-0.32-2.049V36.438h-1.439c-0.491,0-0.8-0.101-0.928-0.304s-0.192-0.496-0.192-0.88c0-0.49,0.112-0.805,0.336-0.944
		c0.224-0.139,0.528-0.208,0.912-0.208h1.312v-1.856c0-0.64,0.059-1.141,0.177-1.504c0.117-0.363,0.484-0.544,1.104-0.544
		c0.533,0,0.864,0.102,0.992,0.304c0.128,0.203,0.192,0.528,0.192,0.976v2.624h3.968c0.683,0,1.179,0.064,1.488,0.192
		c0.309,0.128,0.474,0.438,0.495,0.928c0,0.491-0.165,0.816-0.495,0.976c-0.331,0.16-0.849,0.24-1.553,0.24H335.554z"/>
</g>
</svg>
