<?xml version="1.0" encoding="utf-8"?>
<!-- Generator: Adobe Illustrator 15.0.0, SVG Export Plug-In . SVG Version: 6.00 Build 0)  -->
<!DOCTYPE svg PUBLIC "-//W3C//DTD SVG 1.1//EN" "http://www.w3.org/Graphics/SVG/1.1/DTD/svg11.dtd">
<svg version="1.1" id="Layer_1" xmlns="http://www.w3.org/2000/svg" xmlns:xlink="http://www.w3.org/1999/xlink" x="0px" y="0px"
	 width="194px" height="42px" viewBox="0 0 194 42" enable-background="new 0 0 194 42" xml:space="preserve">
<g>
	<g>
		<path fill="#B48E4E" d="M13.343,17.429l-1.81-9.208V8.22c-0.041,0.007-0.45,0.094-0.471,0.098
			c-1.667,0.376-3.243,1.078-4.637,2.056c-0.055,0.039-0.113,0.083-0.171,0.125c-0.051,0.037-0.105,0.076-0.157,0.113
			c-1.346,1.009-2.505,2.283-3.389,3.777c-0.012,0.021-0.025,0.041-0.036,0.06c-0.047,0.082-0.094,0.166-0.14,0.249
			C2.509,14.735,2.49,14.77,2.47,14.806c-0.376,0.694-0.697,1.432-0.953,2.212c-0.252,0.777-0.425,1.563-0.529,2.348l8.695,5.796
			L13.343,17.429z"/>
		<polygon opacity="0.1" fill="#FFFFFF" enable-background="new    " points="11.549,8.195 1.053,19.367 14.525,23.486 		"/>
		<path opacity="0.1" fill="#FFFFFF" enable-background="new    " d="M4.766,11.752l4.327,10.072l4.25-4.582l-1.795-9.049
			C11.549,8.195,7.694,8.851,4.766,11.752z"/>
		<path fill="#CD6D60" d="M25.38,14.797c-2.214-4.054-6.504-6.796-11.448-6.796c-1.957-0.028-3.546,0.488-3.546,0.488l1.884,8.535
			l4.507,2.18L25.38,14.797z"/>
		<path fill="#65757C" d="M26.874,19.365l-8.397,1.315l-6.685,3.697l-3.46,8.464l-0.003,0.002c0.041,0.017,0.08,0.035,0.121,0.054
			c0.083,0.039,0.166,0.077,0.252,0.113c0.024,0.013,0.048,0.021,0.072,0.029c1.571,0.676,3.254,1.033,4.955,1.062
			c0.071,0.002,0.14,0,0.212,0c0.063,0,0.129,0,0.195,0c1.682-0.024,3.368-0.375,4.965-1.062c0.019-0.012,0.037-0.017,0.058-0.026
			c0.089-0.038,0.178-0.078,0.265-0.119c0.037-0.019,0.072-0.034,0.109-0.05c0.714-0.344,1.408-0.753,2.07-1.232
			C25.603,28.703,27.468,23.947,26.874,19.365"/>
		<path fill="#3A8EBC" d="M23.87,12.625c2.381,2.382,4.063,7.5,2.473,12.456c-0.253,0.779-0.572,1.52-0.952,2.213l-9.408-4.453
			l0.008-4.404L23.87,12.625z"/>
		<path fill="#45BB89" d="M1.263,18.056c-0.005,0.043-0.997,2.661,0.194,6.833c0.021,0.066,0.043,0.134,0.064,0.201
			c0.019,0.061,0.041,0.122,0.061,0.188c0.543,1.592,1.398,3.086,2.547,4.391c0.015,0.017,0.029,0.035,0.042,0.05
			c0.063,0.069,0.131,0.144,0.197,0.212c0.025,0.031,0.054,0.062,0.081,0.09c0.546,0.575,1.147,1.107,1.811,1.587
			c3.191,2.4,6.839,2.507,7.462,2.503l-0.826-9.111l-1.955-2.471L1.263,18.056z"/>
		<path opacity="0.1" fill="#FFFFFF" enable-background="new    " d="M23.87,12.625l-9.382,6.946l11.41-3.653
			C25.898,15.918,25.516,14.332,23.87,12.625z"/>
		<path opacity="0.1" fill="#FFFFFF" enable-background="new    " d="M25.37,27.279l-8.446-3.977l8.967-7.422
			C25.891,15.881,28.635,21.386,25.37,27.279z"/>
		<path opacity="0.1" fill="#FFFFFF" enable-background="new    " d="M13.723,34.109l2.576-11.065l9.074,4.235
			C25.37,27.279,22.198,34.052,13.723,34.109z"/>
		<path opacity="0.1" fill="#FFFFFF" enable-background="new    " d="M12.706,25.229l1.016,8.881c0,0,3.219,0.131,5.943-1.35
			l-6.106-9.059L12.706,25.229z"/>
		<polygon opacity="0.1" fill="#FFFFFF" enable-background="new    " points="25.37,27.279 19.59,16.759 15.492,20.789 
			15.77,22.775 		"/>
		<path opacity="0.1" fill="#FFFFFF" enable-background="new    " d="M13.727,34.141l-1.009-8.831L1.831,25.896
			C1.831,25.896,4.412,33.723,13.727,34.141z"/>
		<polygon opacity="0.1" fill="#FFFFFF" enable-background="new    " points="0.956,19.331 8.927,23.988 13.723,34.072 		"/>
		<path opacity="0.1" fill="#FFFFFF" enable-background="new    " d="M0.989,19.364l6.59,1.981l6.163,12.765
			c0,0-2.798,0.102-5.895-1.523C4.312,30.727,0.328,26.488,0.989,19.364z"/>
		<path opacity="0.1" fill="#FFFFFF" enable-background="new    " d="M10.424,8.488l6.871,8.977l6.575-4.875
			C23.87,12.59,18.809,6.236,10.424,8.488z"/>
		<polygon opacity="0.1" fill="#FFFFFF" enable-background="new    " points="11.459,13.217 12.863,20.789 23.917,12.617 		"/>
	</g>
	<g>
		
			<image overflow="visible" opacity="0.4" enable-background="new    " width="75" height="79" xlink:href="8E5C8150.png"  transform="matrix(0.2208 0 0 0.2278 7.0532 14.0977)">
		</image>
		<g>
			<path fill="#FFFFFF" d="M9.053,16.254c0-0.639,0.518-1.157,1.156-1.157c0.199,0,0.324,0.052,0.545,0.14l8.113,4.721
				c0.376,0.225,0.552,0.583,0.619,0.998v0.117c-0.067,0.414-0.242,0.772-0.619,0.996l-8.113,4.721
				c-0.221,0.088-0.349,0.141-0.545,0.141c-0.639,0-1.156-0.52-1.156-1.157V16.254L9.053,16.254z"/>
		</g>
	</g>
</g>
<path fill="#FFFFFF" d="M35.144,25.479c-0.186,0.451-0.421,0.674-0.707,0.674c-0.153,0-0.281-0.043-0.387-0.131
	c-0.105-0.088-0.216-0.273-0.337-0.559l-3.488-10.002c-0.087-0.231-0.11-0.412-0.066-0.542c0.044-0.132,0.16-0.231,0.346-0.297
	c0.438-0.174,0.734-0.027,0.888,0.444l3.06,8.902l3.027-8.935c0.078-0.219,0.187-0.356,0.33-0.412
	c0.142-0.054,0.29-0.07,0.444-0.049c0.197,0.022,0.34,0.099,0.428,0.23c0.088,0.132,0.076,0.34-0.034,0.625L35.144,25.479z"/>
<path fill="#FFFFFF" d="M40.245,15.246c0-0.23,0.08-0.428,0.238-0.592c0.159-0.165,0.359-0.247,0.6-0.247
	c0.23,0,0.426,0.083,0.585,0.247c0.159,0.164,0.238,0.362,0.238,0.592s-0.08,0.428-0.238,0.593
	c-0.159,0.165-0.355,0.247-0.585,0.247c-0.241,0-0.44-0.082-0.6-0.247C40.325,15.675,40.245,15.477,40.245,15.246z M41.71,25.496
	c0,0.438-0.208,0.656-0.625,0.656c-0.428,0-0.641-0.22-0.641-0.656v-7.502c0-0.252,0.06-0.431,0.181-0.534
	c0.12-0.104,0.274-0.156,0.46-0.156c0.187,0,0.338,0.049,0.454,0.147c0.115,0.099,0.173,0.28,0.173,0.543L41.71,25.496L41.71,25.496
	z"/>
<path fill="#FFFFFF" d="M50.016,24.459c-0.219,0.494-0.559,0.914-1.019,1.258c-0.462,0.344-1.037,0.52-1.729,0.52
	c-0.525,0-1.006-0.106-1.438-0.319c-0.434-0.216-0.811-0.517-1.128-0.904c-0.317-0.392-0.564-0.858-0.74-1.408
	c-0.176-0.549-0.263-1.157-0.263-1.825c0-0.812,0.104-1.509,0.312-2.091c0.208-0.581,0.483-1.058,0.823-1.431
	c0.34-0.374,0.731-0.644,1.176-0.814c0.444-0.169,0.907-0.254,1.39-0.254c0.636,0.011,1.188,0.208,1.654,0.593
	c0.465,0.384,0.798,0.845,0.994,1.381v-4.671c0-0.176,0.052-0.33,0.156-0.461c0.105-0.131,0.266-0.197,0.486-0.197
	c0.218,0,0.377,0.065,0.477,0.197c0.098,0.131,0.149,0.285,0.149,0.461V25.5c0,0.176-0.048,0.326-0.141,0.453
	c-0.092,0.125-0.261,0.188-0.502,0.188c-0.241,0-0.411-0.062-0.51-0.188c-0.098-0.127-0.148-0.277-0.148-0.453L50.016,24.459
	L50.016,24.459z M45.016,21.777c0,1.055,0.231,1.875,0.69,2.469c0.461,0.592,1.108,0.889,1.942,0.889
	c0.406,0,0.759-0.086,1.062-0.254c0.302-0.172,0.551-0.408,0.748-0.709c0.197-0.301,0.346-0.654,0.445-1.061
	c0.098-0.406,0.147-0.845,0.147-1.316c0-0.471-0.054-0.918-0.164-1.34c-0.11-0.422-0.269-0.79-0.478-1.102
	c-0.208-0.312-0.462-0.562-0.765-0.748c-0.301-0.187-0.644-0.28-1.028-0.28c-0.45,0-0.837,0.08-1.16,0.24
	c-0.323,0.159-0.593,0.391-0.806,0.699c-0.214,0.306-0.374,0.672-0.478,1.095C45.068,20.777,45.016,21.252,45.016,21.777z"/>
<path fill="#FFFFFF" d="M56.597,26.318c-0.636,0-1.189-0.121-1.661-0.361c-0.472-0.241-0.863-0.567-1.176-0.979
	c-0.313-0.412-0.546-0.891-0.7-1.439s-0.23-1.129-0.23-1.743c0-0.613,0.081-1.2,0.239-1.76c0.16-0.56,0.395-1.053,0.708-1.481
	c0.312-0.428,0.704-0.768,1.176-1.02c0.471-0.252,1.02-0.378,1.644-0.378c0.592,0,1.103,0.109,1.531,0.329
	c0.427,0.22,0.776,0.51,1.045,0.872c0.268,0.362,0.469,0.781,0.6,1.257c0.132,0.478,0.198,0.98,0.198,1.506
	c0,0.406-0.054,0.693-0.158,0.865c-0.104,0.17-0.298,0.254-0.584,0.254h-5.134c-0.01,0.352,0.039,0.703,0.148,1.054
	c0.11,0.35,0.272,0.668,0.485,0.952c0.213,0.285,0.479,0.519,0.798,0.699c0.317,0.181,0.686,0.271,1.102,0.271
	c0.538,0,0.99-0.074,1.358-0.223c0.365-0.146,0.687-0.379,0.959-0.697c0.112-0.121,0.214-0.197,0.313-0.223
	c0.1-0.029,0.187-0.031,0.264-0.008c0.077,0.021,0.139,0.062,0.189,0.12c0.05,0.062,0.084,0.117,0.107,0.175
	c0.077,0.131,0.063,0.307-0.042,0.526c-0.104,0.219-0.295,0.437-0.576,0.647c-0.279,0.213-0.64,0.396-1.076,0.552
	C57.687,26.24,57.178,26.318,56.597,26.318z M58.769,21.268c0-0.351-0.029-0.705-0.091-1.061c-0.061-0.356-0.173-0.68-0.338-0.971
	c-0.165-0.29-0.391-0.526-0.683-0.707c-0.289-0.181-0.661-0.272-1.11-0.272c-0.482,0-0.881,0.104-1.192,0.312
	c-0.312,0.208-0.563,0.464-0.749,0.766c-0.187,0.301-0.319,0.626-0.396,0.978c-0.077,0.352-0.116,0.668-0.116,0.954L58.769,21.268
	L58.769,21.268z"/>
<path fill="#FFFFFF" d="M65.053,17.138c0.703,0,1.305,0.126,1.811,0.378c0.503,0.252,0.921,0.593,1.249,1.021
	c0.331,0.427,0.571,0.921,0.724,1.48c0.154,0.56,0.23,1.151,0.23,1.776s-0.08,1.216-0.237,1.769
	c-0.159,0.556-0.404,1.039-0.732,1.455c-0.329,0.418-0.746,0.746-1.25,0.988c-0.505,0.239-1.102,0.36-1.792,0.36
	c-0.692,0-1.289-0.123-1.794-0.369c-0.504-0.248-0.918-0.582-1.241-1.006c-0.323-0.42-0.562-0.908-0.716-1.463
	c-0.153-0.553-0.229-1.142-0.229-1.767s0.074-1.218,0.222-1.777c0.147-0.559,0.384-1.051,0.708-1.472
	c0.323-0.422,0.734-0.756,1.234-1.002C63.736,17.263,64.341,17.138,65.053,17.138z M65.053,25.264c0.438,0,0.828-0.08,1.169-0.246
	c0.339-0.164,0.625-0.396,0.855-0.697s0.405-0.666,0.526-1.096c0.12-0.43,0.181-0.898,0.181-1.416c0-0.523-0.056-1.005-0.165-1.438
	c-0.11-0.433-0.28-0.806-0.51-1.119c-0.231-0.313-0.519-0.554-0.865-0.724s-0.754-0.254-1.226-0.254
	c-0.471,0-0.877,0.087-1.218,0.263c-0.34,0.176-0.615,0.419-0.83,0.732c-0.214,0.312-0.37,0.683-0.47,1.109
	c-0.098,0.428-0.147,0.895-0.147,1.399c0,0.515,0.057,0.985,0.173,1.414c0.116,0.428,0.285,0.797,0.51,1.104
	c0.225,0.305,0.505,0.545,0.838,0.715C64.211,25.18,64.604,25.264,65.053,25.264z"/>
<path fill="#FFFFFF" d="M82.328,25.215c0.032,0.23,0.023,0.443-0.026,0.635c-0.048,0.193-0.227,0.293-0.534,0.303
	c-0.197,0-0.34-0.055-0.426-0.17c-0.088-0.115-0.153-0.311-0.197-0.586l-0.955-6.562c-0.032-0.208-0.074-0.466-0.124-0.773
	c-0.05-0.307-0.104-0.572-0.164-0.798c-0.062-0.226-0.126-0.37-0.197-0.435c-0.07-0.066-0.144,0.032-0.222,0.296l-2.451,8.438
	c-0.057,0.209-0.123,0.359-0.208,0.453c-0.082,0.095-0.21,0.14-0.386,0.14c-0.187,0-0.319-0.041-0.395-0.121
	c-0.077-0.082-0.149-0.238-0.214-0.472c-0.417-1.414-0.836-2.817-1.258-4.21c-0.422-1.393-0.832-2.797-1.226-4.212
	c-0.077-0.263-0.157-0.395-0.239-0.395c-0.083,0-0.146,0.132-0.189,0.395L71.7,25.367c-0.033,0.252-0.097,0.444-0.189,0.584
	c-0.093,0.135-0.265,0.203-0.518,0.203c-0.417,0-0.576-0.273-0.478-0.82l1.498-9.789c0.042-0.33,0.149-0.576,0.32-0.741
	c0.17-0.165,0.392-0.246,0.667-0.246c0.274,0,0.502,0.071,0.683,0.214c0.182,0.142,0.326,0.395,0.436,0.757l2.335,8.241l2.287-8.258
	c0.098-0.351,0.24-0.598,0.419-0.74c0.182-0.143,0.404-0.214,0.668-0.214c0.263,0,0.485,0.082,0.665,0.246
	c0.182,0.166,0.299,0.417,0.354,0.758L82.328,25.215z"/>
<path fill="#FFFFFF" d="M89.763,24.459c-0.263,0.57-0.611,1.008-1.045,1.316c-0.433,0.307-0.983,0.461-1.652,0.461
	c-0.538,0-1.029-0.106-1.473-0.319c-0.444-0.216-0.825-0.517-1.144-0.904c-0.317-0.392-0.564-0.858-0.74-1.408
	c-0.175-0.549-0.263-1.157-0.263-1.825c0-0.812,0.101-1.509,0.305-2.091c0.203-0.581,0.47-1.058,0.807-1.431
	c0.333-0.374,0.725-0.644,1.175-0.814c0.45-0.169,0.922-0.254,1.415-0.254c0.657,0.011,1.212,0.204,1.662,0.576
	c0.449,0.373,0.779,0.839,0.986,1.398v-1.201c0-0.175,0.051-0.329,0.157-0.46c0.104-0.132,0.264-0.198,0.484-0.198
	c0.22,0.011,0.379,0.08,0.478,0.207c0.099,0.125,0.148,0.276,0.148,0.453v7.518c0,0.176-0.048,0.325-0.139,0.45
	c-0.093,0.127-0.261,0.197-0.502,0.207c-0.241,0-0.41-0.063-0.511-0.194c-0.097-0.134-0.148-0.287-0.148-0.463V24.459z
	 M84.745,21.777c0.012,1.055,0.248,1.875,0.708,2.469c0.46,0.592,1.106,0.889,1.941,0.889c0.416,0,0.775-0.086,1.077-0.254
	c0.301-0.172,0.55-0.408,0.749-0.709c0.197-0.301,0.345-0.654,0.444-1.061c0.099-0.408,0.15-0.845,0.15-1.316
	c0-0.471-0.057-0.918-0.166-1.34c-0.109-0.422-0.27-0.79-0.478-1.102s-0.463-0.562-0.765-0.748c-0.303-0.187-0.65-0.28-1.044-0.28
	c-0.45,0-0.837,0.08-1.16,0.24c-0.324,0.159-0.595,0.391-0.815,0.699c-0.219,0.306-0.383,0.672-0.485,1.095
	C84.796,20.777,84.745,21.252,84.745,21.777z"/>
<path fill="#FFFFFF" d="M98.499,20.709c0-0.889-0.17-1.514-0.511-1.875c-0.341-0.362-0.839-0.542-1.496-0.542
	c-0.286,0-0.571,0.041-0.854,0.122c-0.286,0.083-0.542,0.217-0.774,0.404c-0.231,0.186-0.418,0.428-0.569,0.725
	c-0.148,0.295-0.222,0.658-0.222,1.085v4.935c0,0.396-0.208,0.592-0.625,0.592c-0.186,0-0.339-0.053-0.453-0.164
	c-0.115-0.108-0.172-0.252-0.172-0.428v-7.666c0-0.197,0.058-0.345,0.172-0.444c0.114-0.099,0.273-0.147,0.471-0.147
	c0.405,0,0.608,0.197,0.608,0.592v0.921c0.098-0.197,0.233-0.395,0.403-0.592c0.168-0.198,0.37-0.375,0.6-0.535
	c0.231-0.158,0.488-0.288,0.774-0.386c0.286-0.099,0.592-0.149,0.921-0.149c0.429,0,0.822,0.061,1.185,0.181
	c0.361,0.121,0.675,0.305,0.938,0.551c0.262,0.247,0.472,0.563,0.623,0.947c0.153,0.384,0.231,0.839,0.231,1.366v5.362
	c0,0.396-0.208,0.593-0.626,0.593c-0.417,0-0.625-0.195-0.625-0.593V20.709z"/>
<path fill="#FFFFFF" d="M107.416,24.459c-0.265,0.57-0.61,1.008-1.043,1.316c-0.437,0.307-0.985,0.461-1.655,0.461
	c-0.535,0-1.029-0.107-1.473-0.32c-0.443-0.215-0.828-0.516-1.143-0.904c-0.319-0.391-0.566-0.859-0.743-1.408
	c-0.175-0.549-0.261-1.156-0.261-1.826c0-0.812,0.102-1.508,0.304-2.09c0.202-0.581,0.472-1.058,0.806-1.431
	c0.334-0.374,0.727-0.644,1.178-0.814c0.446-0.169,0.922-0.254,1.414-0.254c0.657,0.011,1.211,0.204,1.662,0.576
	c0.45,0.373,0.776,0.839,0.986,1.398v-1.201c0-0.175,0.051-0.329,0.156-0.46c0.104-0.132,0.267-0.198,0.483-0.198
	c0.22,0.011,0.38,0.08,0.479,0.207c0.099,0.125,0.146,0.276,0.146,0.453v7.517c0,0.176-0.045,0.326-0.139,0.451
	c-0.091,0.127-0.261,0.197-0.501,0.207c-0.243,0-0.411-0.064-0.51-0.195c-0.103-0.133-0.149-0.287-0.149-0.463L107.416,24.459
	L107.416,24.459z M102.397,21.777c0.013,1.055,0.248,1.875,0.711,2.469c0.46,0.592,1.105,0.889,1.938,0.889
	c0.419,0,0.775-0.086,1.079-0.254c0.299-0.172,0.551-0.408,0.746-0.709c0.198-0.301,0.348-0.654,0.443-1.061
	c0.102-0.406,0.15-0.845,0.15-1.316c0-0.471-0.055-0.918-0.164-1.34c-0.111-0.422-0.271-0.79-0.479-1.102
	c-0.205-0.312-0.463-0.562-0.763-0.748c-0.303-0.187-0.651-0.28-1.047-0.28c-0.449,0-0.834,0.08-1.158,0.24
	c-0.324,0.159-0.594,0.391-0.813,0.699c-0.222,0.306-0.383,0.672-0.485,1.095C102.451,20.777,102.397,21.252,102.397,21.777z"/>
<path fill="#FFFFFF" d="M117.649,25.678c0,0.482-0.094,0.92-0.28,1.316c-0.187,0.395-0.449,0.731-0.791,1.02
	c-0.34,0.283-0.756,0.504-1.249,0.656c-0.495,0.154-1.043,0.23-1.646,0.23c-0.285,0-0.594-0.027-0.922-0.082
	c-0.328-0.056-0.64-0.136-0.931-0.238c-0.288-0.105-0.542-0.23-0.755-0.369c-0.214-0.143-0.354-0.303-0.42-0.479
	c-0.088-0.098-0.137-0.225-0.148-0.377c-0.012-0.153,0.051-0.309,0.18-0.461c0.176-0.229,0.383-0.227,0.61,0.017
	c0.25,0.242,0.601,0.44,1.046,0.602c0.443,0.158,0.928,0.227,1.454,0.205c0.767-0.021,1.386-0.211,1.853-0.568
	c0.468-0.354,0.699-0.846,0.699-1.471V24.41c-0.252,0.537-0.619,0.936-1.104,1.19c-0.482,0.259-1.059,0.388-1.727,0.388
	c-0.518,0-0.99-0.101-1.424-0.304c-0.435-0.203-0.806-0.493-1.119-0.873c-0.313-0.377-0.561-0.832-0.74-1.362
	c-0.182-0.533-0.271-1.133-0.271-1.805c0-0.811,0.106-1.5,0.321-2.064c0.212-0.565,0.493-1.025,0.839-1.382s0.74-0.615,1.184-0.774
	c0.444-0.159,0.899-0.238,1.359-0.238c0.656,0.011,1.221,0.183,1.691,0.518c0.474,0.334,0.812,0.782,1.021,1.341v-1.085
	c0-0.175,0.053-0.33,0.156-0.461c0.105-0.131,0.266-0.197,0.484-0.197c0.207,0,0.363,0.065,0.471,0.197
	c0.104,0.131,0.156,0.286,0.156,0.461v7.717H117.649z M111.267,21.63c0,1.03,0.24,1.815,0.715,2.353
	c0.479,0.537,1.095,0.807,1.851,0.807c0.823,0,1.454-0.25,1.896-0.747c0.437-0.5,0.656-1.3,0.656-2.396
	c-0.011-1.096-0.246-1.921-0.707-2.476c-0.461-0.553-1.084-0.831-1.875-0.831c-0.801,0-1.424,0.291-1.867,0.872
	C111.486,19.793,111.267,20.599,111.267,21.63z"/>
<path fill="#FFFFFF" d="M122.865,26.318c-0.64,0-1.19-0.121-1.662-0.361c-0.474-0.241-0.865-0.567-1.177-0.979
	c-0.312-0.412-0.547-0.891-0.699-1.439c-0.155-0.549-0.23-1.129-0.23-1.743c0-0.613,0.08-1.2,0.238-1.76
	c0.161-0.56,0.395-1.053,0.71-1.481c0.312-0.428,0.704-0.768,1.175-1.02s1.021-0.378,1.646-0.378c0.592,0,1.101,0.109,1.53,0.329
	c0.427,0.22,0.772,0.51,1.045,0.872c0.267,0.362,0.47,0.781,0.6,1.257c0.13,0.478,0.197,0.98,0.197,1.506
	c0,0.406-0.053,0.693-0.157,0.865c-0.104,0.17-0.298,0.254-0.583,0.254h-5.134c-0.011,0.352,0.038,0.703,0.149,1.054
	c0.107,0.35,0.271,0.668,0.483,0.952c0.214,0.285,0.479,0.519,0.799,0.699c0.316,0.181,0.685,0.271,1.103,0.271
	c0.537,0,0.988-0.074,1.356-0.223c0.366-0.146,0.688-0.379,0.962-0.697c0.111-0.121,0.215-0.197,0.313-0.223
	c0.099-0.029,0.187-0.031,0.263-0.008c0.077,0.021,0.139,0.062,0.188,0.12c0.051,0.062,0.086,0.117,0.108,0.175
	c0.077,0.131,0.062,0.307-0.041,0.526c-0.104,0.219-0.297,0.437-0.575,0.647c-0.277,0.213-0.64,0.396-1.078,0.552
	C123.956,26.24,123.446,26.318,122.865,26.318z M125.034,21.268c0-0.351-0.027-0.705-0.09-1.061
	c-0.059-0.356-0.172-0.68-0.338-0.971c-0.162-0.29-0.393-0.526-0.682-0.707c-0.293-0.181-0.662-0.272-1.111-0.272
	c-0.481,0-0.881,0.104-1.192,0.312s-0.562,0.464-0.749,0.766c-0.188,0.301-0.318,0.626-0.395,0.978
	c-0.078,0.352-0.114,0.668-0.114,0.954L125.034,21.268L125.034,21.268z"/>
<path fill="#FFFFFF" d="M138.97,20.824c0-1.646-0.646-2.469-1.939-2.469c-0.319,0-0.618,0.044-0.896,0.132
	c-0.279,0.087-0.525,0.232-0.73,0.435c-0.21,0.203-0.374,0.468-0.496,0.798c-0.119,0.329-0.18,0.729-0.18,1.201v4.638
	c0,0.373-0.207,0.572-0.625,0.593c-0.428,0-0.642-0.195-0.642-0.593v-4.343c0-0.471-0.034-0.888-0.099-1.25
	c-0.065-0.362-0.18-0.664-0.34-0.905c-0.158-0.241-0.373-0.422-0.641-0.542c-0.269-0.121-0.611-0.182-1.029-0.182
	c-0.272,0-0.541,0.042-0.805,0.124s-0.503,0.222-0.717,0.419c-0.213,0.198-0.386,0.461-0.518,0.79
	c-0.131,0.329-0.197,0.74-0.197,1.233v4.654c0,0.396-0.221,0.592-0.659,0.592c-0.405,0-0.608-0.195-0.608-0.592v-7.698
	c0-0.197,0.049-0.34,0.147-0.427c0.099-0.088,0.265-0.132,0.494-0.132c0.405,0,0.608,0.186,0.608,0.559v0.938
	c0.088-0.23,0.215-0.444,0.388-0.642c0.169-0.197,0.36-0.364,0.575-0.502c0.213-0.137,0.438-0.246,0.683-0.329
	c0.239-0.083,0.485-0.124,0.737-0.124c0.684,0,1.259,0.146,1.738,0.436c0.478,0.29,0.81,0.71,0.993,1.259
	c0.285-0.493,0.677-0.899,1.177-1.217s1.076-0.477,1.735-0.477c0.406,0,0.793,0.063,1.161,0.19c0.368,0.125,0.688,0.315,0.963,0.568
	c0.271,0.253,0.493,0.562,0.658,0.929c0.164,0.367,0.246,0.798,0.246,1.292v5.378c0,0.177-0.035,0.316-0.106,0.423
	c-0.071,0.104-0.217,0.159-0.437,0.17c-0.229,0-0.395-0.045-0.493-0.14c-0.099-0.094-0.149-0.244-0.149-0.453v-4.735H138.97z"/>
<path fill="#FFFFFF" d="M145.601,26.318c-0.638,0-1.192-0.121-1.664-0.361c-0.471-0.241-0.862-0.567-1.176-0.979
	c-0.312-0.412-0.547-0.891-0.699-1.439c-0.153-0.547-0.229-1.129-0.229-1.743c0-0.613,0.08-1.2,0.238-1.76
	c0.159-0.56,0.396-1.053,0.708-1.481c0.312-0.428,0.703-0.768,1.176-1.02c0.471-0.252,1.02-0.378,1.646-0.378
	c0.59,0,1.101,0.109,1.529,0.329c0.426,0.22,0.774,0.51,1.043,0.872c0.271,0.362,0.471,0.781,0.602,1.257
	c0.131,0.478,0.199,0.98,0.199,1.506c0,0.406-0.055,0.693-0.158,0.865c-0.104,0.17-0.299,0.254-0.584,0.254h-5.133
	c-0.013,0.352,0.037,0.703,0.147,1.054c0.108,0.35,0.271,0.668,0.483,0.952c0.216,0.285,0.481,0.519,0.802,0.699
	c0.315,0.181,0.685,0.271,1.101,0.271c0.537,0,0.99-0.074,1.356-0.223c0.366-0.146,0.688-0.379,0.963-0.697
	c0.11-0.121,0.215-0.197,0.312-0.223c0.101-0.029,0.188-0.031,0.266-0.008c0.076,0.021,0.139,0.062,0.189,0.12
	c0.049,0.062,0.084,0.117,0.104,0.175c0.077,0.131,0.063,0.307-0.04,0.526c-0.104,0.219-0.296,0.437-0.574,0.647
	c-0.277,0.213-0.641,0.396-1.076,0.552C146.69,26.24,146.183,26.318,145.601,26.318z M147.772,21.268
	c0-0.351-0.03-0.705-0.092-1.061s-0.174-0.68-0.338-0.971c-0.164-0.29-0.393-0.526-0.683-0.707c-0.292-0.181-0.661-0.272-1.11-0.272
	c-0.482,0-0.882,0.104-1.193,0.312c-0.312,0.208-0.562,0.464-0.75,0.766c-0.187,0.301-0.317,0.626-0.395,0.978
	c-0.076,0.352-0.113,0.668-0.113,0.954L147.772,21.268L147.772,21.268z"/>
<path fill="#FFFFFF" d="M156.259,20.709c0-0.889-0.168-1.514-0.511-1.875c-0.34-0.362-0.838-0.542-1.496-0.542
	c-0.284,0-0.571,0.041-0.856,0.122c-0.282,0.083-0.541,0.217-0.771,0.404c-0.229,0.186-0.419,0.428-0.567,0.725
	c-0.147,0.295-0.222,0.658-0.222,1.085v4.935c0,0.396-0.208,0.592-0.626,0.592c-0.188,0-0.337-0.053-0.449-0.164
	c-0.115-0.108-0.176-0.252-0.176-0.428v-7.666c0-0.197,0.061-0.345,0.176-0.444c0.112-0.099,0.271-0.147,0.467-0.147
	c0.406,0,0.608,0.197,0.608,0.592v0.921c0.099-0.197,0.233-0.395,0.403-0.592c0.17-0.198,0.37-0.375,0.602-0.535
	c0.229-0.158,0.487-0.288,0.772-0.386c0.284-0.099,0.592-0.149,0.922-0.149c0.428,0,0.821,0.061,1.185,0.181
	c0.36,0.121,0.672,0.305,0.938,0.551c0.263,0.247,0.473,0.563,0.624,0.947c0.153,0.384,0.231,0.839,0.231,1.366v5.362
	c0,0.396-0.209,0.593-0.625,0.593c-0.418,0-0.625-0.195-0.625-0.593v-4.852h-0.004V20.709z"/>
<path fill="#FFFFFF" d="M161.328,18.718v4.952c0,0.264,0.033,0.498,0.104,0.707s0.192,0.373,0.361,0.492
	c0.171,0.121,0.42,0.182,0.749,0.182c0.254,0,0.472-0.037,0.66-0.113c0.187-0.078,0.367-0.154,0.541-0.23
	c0.2-0.09,0.368-0.125,0.512-0.108c0.142,0.019,0.224,0.117,0.245,0.306c0.035,0.176-0.014,0.34-0.139,0.493
	c-0.126,0.152-0.299,0.285-0.51,0.394c-0.213,0.111-0.463,0.199-0.741,0.266c-0.279,0.064-0.558,0.098-0.829,0.098
	c-0.331,0-0.63-0.035-0.898-0.106c-0.27-0.072-0.503-0.195-0.697-0.369c-0.201-0.176-0.352-0.406-0.461-0.69
	c-0.111-0.285-0.166-0.638-0.166-1.054v-5.214h-0.738c-0.252,0-0.412-0.052-0.479-0.157c-0.065-0.104-0.1-0.254-0.1-0.453
	c0-0.252,0.059-0.414,0.173-0.484c0.115-0.072,0.271-0.108,0.47-0.108h0.674v-0.955c0-0.329,0.029-0.586,0.09-0.771
	c0.062-0.188,0.25-0.281,0.57-0.281c0.273,0,0.442,0.054,0.51,0.158c0.066,0.104,0.1,0.271,0.1,0.502v1.349h2.039
	c0.352,0,0.605,0.034,0.766,0.099c0.159,0.066,0.242,0.225,0.254,0.477c0,0.252-0.084,0.42-0.254,0.502
	c-0.171,0.083-0.437,0.125-0.797,0.125h-2.009V18.718z"/>
<g>
	<path fill="#F3B067" d="M169.987,17.686c0,0.255,0.076,0.476,0.232,0.664c0.155,0.189,0.346,0.355,0.573,0.499
		s0.466,0.266,0.711,0.365c0.25,0.1,0.478,0.193,0.673,0.282c0.512,0.222,0.944,0.443,1.305,0.664
		c0.359,0.222,0.654,0.459,0.889,0.713c0.232,0.255,0.402,0.539,0.516,0.854c0.109,0.317,0.159,0.686,0.148,1.104
		c-0.021,1.097-0.364,1.979-1.029,2.646c-0.664,0.67-1.676,1.027-3.037,1.07c-0.486,0.023-0.951-0.035-1.394-0.174
		c-0.444-0.139-0.826-0.289-1.146-0.455c-0.289-0.146-0.521-0.309-0.69-0.498c-0.171-0.189-0.296-0.373-0.373-0.557
		c-0.076-0.185-0.113-0.359-0.108-0.531c0.006-0.172,0.055-0.324,0.143-0.455c0.154-0.244,0.34-0.381,0.557-0.408
		c0.215-0.027,0.418,0.02,0.605,0.141c0.166,0.111,0.341,0.23,0.521,0.357c0.186,0.127,0.376,0.244,0.583,0.35
		c0.204,0.105,0.419,0.189,0.646,0.256c0.226,0.066,0.474,0.101,0.738,0.101c0.221,0,0.44-0.037,0.655-0.115
		c0.217-0.078,0.407-0.188,0.573-0.332c0.165-0.146,0.297-0.323,0.398-0.539c0.098-0.217,0.147-0.463,0.147-0.739
		c0-0.265-0.06-0.498-0.185-0.696c-0.121-0.199-0.267-0.374-0.438-0.524c-0.172-0.148-0.36-0.273-0.563-0.374
		c-0.205-0.099-0.39-0.176-0.556-0.231c-0.465-0.166-0.899-0.346-1.304-0.539c-0.404-0.194-0.754-0.423-1.055-0.689
		c-0.297-0.266-0.537-0.581-0.715-0.946c-0.177-0.366-0.265-0.797-0.265-1.295c0-0.531,0.106-0.999,0.324-1.403
		c0.215-0.403,0.5-0.738,0.854-1.004c0.354-0.265,0.755-0.464,1.203-0.597c0.449-0.133,0.904-0.193,1.369-0.183
		c0.521,0.011,1.003,0.094,1.444,0.249c0.442,0.156,0.812,0.349,1.104,0.581c0.294,0.233,0.494,0.485,0.6,0.756
		c0.104,0.272,0.084,0.529-0.059,0.772c-0.077,0.122-0.175,0.218-0.29,0.291c-0.116,0.072-0.237,0.122-0.366,0.149
		c-0.127,0.028-0.252,0.03-0.375,0.009c-0.121-0.023-0.22-0.067-0.297-0.133c-0.111-0.078-0.236-0.164-0.373-0.258
		c-0.14-0.094-0.291-0.183-0.457-0.266s-0.341-0.149-0.522-0.199c-0.183-0.05-0.368-0.075-0.556-0.075
		c-0.211,0-0.397,0.042-0.564,0.125c-0.166,0.083-0.307,0.188-0.426,0.316c-0.114,0.127-0.205,0.268-0.272,0.423
		C170.022,17.361,169.987,17.52,169.987,17.686z"/>
	<path fill="#F3B067" d="M181.591,24.607c-0.088,0.189-0.205,0.373-0.35,0.557c-0.145,0.185-0.312,0.347-0.505,0.49
		c-0.194,0.146-0.418,0.256-0.675,0.34c-0.254,0.082-0.534,0.125-0.844,0.125c-0.433,0-0.837-0.065-1.214-0.198
		c-0.377-0.136-0.704-0.33-0.987-0.591c-0.279-0.262-0.506-0.59-0.672-0.985c-0.166-0.399-0.248-0.863-0.248-1.396v-4.914
		c0-0.199,0.09-0.365,0.271-0.499c0.186-0.132,0.432-0.198,0.738-0.198c0.311,0,0.562,0.066,0.756,0.198
		c0.193,0.133,0.291,0.299,0.291,0.499v4.101c0,0.354,0.023,0.664,0.064,0.93c0.045,0.266,0.125,0.485,0.241,0.663
		c0.117,0.179,0.28,0.312,0.49,0.398s0.476,0.133,0.796,0.133c0.268,0,0.514-0.026,0.738-0.084c0.228-0.056,0.422-0.156,0.58-0.308
		c0.164-0.147,0.289-0.356,0.384-0.621c0.094-0.268,0.141-0.608,0.141-1.029v-4.184c0-0.188,0.099-0.351,0.291-0.49
		c0.193-0.138,0.438-0.207,0.738-0.207s0.545,0.072,0.737,0.215c0.195,0.144,0.291,0.304,0.291,0.481v7.869
		c0,0.51-0.104,0.971-0.313,1.385c-0.21,0.416-0.505,0.772-0.88,1.072c-0.378,0.299-0.816,0.524-1.318,0.68
		c-0.506,0.156-1.045,0.227-1.617,0.217c-0.323,0-0.613-0.014-0.873-0.041c-0.262-0.027-0.51-0.08-0.746-0.158
		c-0.24-0.078-0.473-0.18-0.698-0.307c-0.228-0.129-0.462-0.285-0.705-0.473c-0.267-0.211-0.425-0.425-0.474-0.642
		c-0.051-0.215-0.043-0.429,0.025-0.64c0.098-0.309,0.244-0.495,0.438-0.557c0.194-0.061,0.384-0.008,0.571,0.158
		c0.268,0.234,0.596,0.418,0.988,0.557c0.393,0.14,0.876,0.201,1.452,0.191c0.342-0.012,0.646-0.062,0.904-0.15
		c0.261-0.088,0.479-0.199,0.655-0.332c0.178-0.133,0.312-0.283,0.396-0.446c0.091-0.166,0.134-0.332,0.134-0.498v-1.312H181.591z"
		/>
	<path fill="#F3B067" d="M188.281,24.707c0.364,0,0.671-0.084,0.921-0.25c0.248-0.166,0.372-0.396,0.372-0.695
		c0-0.133-0.024-0.252-0.074-0.357c-0.05-0.104-0.146-0.205-0.284-0.297c-0.137-0.096-0.322-0.188-0.562-0.283
		c-0.24-0.096-0.546-0.196-0.923-0.308c-0.465-0.132-0.864-0.271-1.194-0.415c-0.332-0.145-0.606-0.314-0.821-0.514
		s-0.376-0.438-0.48-0.715c-0.106-0.275-0.158-0.607-0.158-0.995c0-0.41,0.084-0.777,0.248-1.104
		c0.167-0.326,0.396-0.603,0.689-0.83s0.633-0.398,1.021-0.515c0.389-0.116,0.796-0.174,1.229-0.174c0.453,0,0.873,0.05,1.252,0.15
		c0.383,0.099,0.709,0.227,0.979,0.382c0.271,0.155,0.483,0.321,0.64,0.497c0.155,0.178,0.233,0.338,0.233,0.482
		c0,0.167-0.015,0.329-0.043,0.49c-0.028,0.161-0.067,0.304-0.124,0.432c-0.055,0.127-0.126,0.23-0.216,0.307
		c-0.089,0.078-0.193,0.116-0.313,0.116c-0.08,0-0.156-0.03-0.232-0.091c-0.078-0.061-0.189-0.152-0.334-0.274
		c-0.254-0.199-0.508-0.359-0.764-0.481s-0.606-0.188-1.061-0.2c-0.29-0.01-0.553,0.045-0.79,0.167
		c-0.237,0.122-0.356,0.327-0.356,0.614c0,0.133,0.027,0.243,0.084,0.333c0.055,0.088,0.153,0.168,0.299,0.241
		c0.144,0.072,0.328,0.146,0.555,0.224c0.229,0.078,0.52,0.166,0.871,0.265c0.378,0.111,0.73,0.238,1.064,0.383
		c0.332,0.143,0.617,0.32,0.86,0.531c0.243,0.209,0.435,0.467,0.573,0.771c0.14,0.303,0.207,0.672,0.207,1.104
		c0,0.441-0.098,0.84-0.297,1.195c-0.198,0.354-0.463,0.652-0.791,0.895c-0.324,0.244-0.692,0.433-1.104,0.564
		c-0.408,0.133-0.822,0.199-1.244,0.199c-0.498,0-0.953-0.066-1.367-0.199c-0.416-0.133-0.767-0.289-1.057-0.473
		c-0.287-0.184-0.511-0.369-0.673-0.564c-0.158-0.191-0.24-0.354-0.24-0.488c0-0.121,0.011-0.262,0.034-0.416
		c0.021-0.153,0.062-0.299,0.116-0.432c0.057-0.131,0.122-0.24,0.208-0.322c0.082-0.084,0.189-0.125,0.322-0.125
		c0.11,0,0.228,0.062,0.351,0.191c0.12,0.127,0.278,0.262,0.472,0.406c0.194,0.145,0.443,0.275,0.748,0.398
		C187.431,24.646,187.815,24.707,188.281,24.707z"/>
</g>
<rect x="37.523" y="53.683" fill="#FFFFFF" width="0.66" height="23.792"/>
<g>
	<g>
		<path fill="#BD9449" d="M15.735,61.514l-1.948-9.912v-0.003c-0.045,0.008-0.483,0.101-0.508,0.106
			c-1.793,0.404-3.491,1.16-4.991,2.213c-0.061,0.043-0.123,0.09-0.185,0.135c-0.056,0.039-0.113,0.082-0.169,0.121
			c-1.448,1.087-2.696,2.459-3.649,4.066c-0.012,0.022-0.027,0.045-0.038,0.064c-0.051,0.088-0.101,0.18-0.151,0.268
			c-0.024,0.041-0.045,0.078-0.066,0.117c-0.406,0.748-0.751,1.541-1.025,2.383c-0.271,0.836-0.459,1.682-0.57,2.527l9.361,6.241
			L15.735,61.514z"/>
		<polygon opacity="0.1" fill="#FFFFFF" enable-background="new    " points="13.803,51.572 2.504,63.601 17.008,68.034 		"/>
		<path opacity="0.1" fill="#FFFFFF" enable-background="new    " d="M6.502,55.402l4.659,10.844l4.574-4.932l-1.933-9.742
			C13.803,51.572,9.654,52.279,6.502,55.402z"/>
		<path fill="#D16B5C" d="M28.695,58.68c-2.383-4.365-7.003-7.316-12.324-7.316c-2.107-0.031-3.817,0.524-3.817,0.524l2.027,9.188
			l4.853,2.347L28.695,58.68z"/>
		<path fill="#6D7980" d="M30.304,63.598l-9.042,1.416l-7.196,3.979l-3.726,9.112l-0.003,0.002c0.044,0.019,0.086,0.037,0.13,0.058
			c0.089,0.043,0.179,0.084,0.271,0.121c0.025,0.013,0.051,0.022,0.078,0.035c1.691,0.725,3.503,1.109,5.335,1.141
			c0.075,0.002,0.151,0,0.229,0c0.069,0,0.139,0,0.21,0c1.811-0.026,3.626-0.405,5.345-1.144c0.02-0.014,0.04-0.02,0.062-0.028
			c0.096-0.041,0.192-0.086,0.286-0.133c0.04-0.017,0.077-0.035,0.117-0.052c0.768-0.368,1.515-0.809,2.229-1.325
			C28.934,73.652,30.941,68.531,30.304,63.598"/>
		<path fill="#398DBE" d="M27.069,56.343c2.564,2.565,4.374,8.073,2.663,13.408c-0.273,0.84-0.618,1.636-1.026,2.384L18.577,67.34
			l0.01-4.742L27.069,56.343z"/>
		<path fill="#4BB280" d="M2.729,62.189c-0.005,0.046-1.073,2.863,0.21,7.356c0.021,0.073,0.045,0.144,0.07,0.217
			c0.02,0.065,0.042,0.133,0.065,0.199c0.584,1.714,1.505,3.324,2.741,4.728c0.016,0.021,0.031,0.038,0.045,0.055
			c0.068,0.074,0.141,0.156,0.211,0.229c0.028,0.031,0.059,0.065,0.088,0.097c0.587,0.616,1.235,1.19,1.949,1.708
			c3.436,2.585,7.363,2.696,8.033,2.695l-0.888-9.812l-2.105-2.66L2.729,62.189z"/>
		<path opacity="0.1" fill="#FFFFFF" enable-background="new    " d="M27.069,56.343L16.968,63.82l12.284-3.932
			C29.252,59.887,28.841,58.181,27.069,56.343z"/>
		<path opacity="0.1" fill="#FFFFFF" enable-background="new    " d="M28.684,72.118l-9.092-4.279l9.655-7.991
			C29.246,59.848,32.198,65.772,28.684,72.118z"/>
		<path opacity="0.1" fill="#FFFFFF" enable-background="new    " d="M16.144,79.474l2.772-11.915l9.77,4.56
			C28.684,72.118,25.269,79.411,16.144,79.474z"/>
		<path opacity="0.1" fill="#FFFFFF" enable-background="new    " d="M15.05,69.912l1.094,9.562c0,0,3.465,0.138,6.399-1.456
			l-6.575-9.75L15.05,69.912z"/>
		<polygon opacity="0.1" fill="#FFFFFF" enable-background="new    " points="28.684,72.118 22.46,60.793 18.049,65.133 
			18.348,67.27 		"/>
		<path opacity="0.1" fill="#FFFFFF" enable-background="new    " d="M16.149,79.505L15.062,70L3.341,70.631
			C3.341,70.631,6.12,79.055,16.149,79.505z"/>
		<polygon opacity="0.1" fill="#FFFFFF" enable-background="new    " points="2.4,63.561 10.981,68.573 16.144,79.431 		"/>
		<path opacity="0.1" fill="#FFFFFF" enable-background="new    " d="M2.436,63.598l7.094,2.132l6.635,13.744
			c0,0-3.013,0.107-6.346-1.645C6.013,75.83,1.725,71.267,2.436,63.598z"/>
		<path opacity="0.1" fill="#FFFFFF" enable-background="new    " d="M12.593,51.888l7.396,9.665l7.079-5.248
			C27.069,56.305,21.62,49.463,12.593,51.888z"/>
		<polygon opacity="0.1" fill="#FFFFFF" enable-background="new    " points="13.707,56.979 15.218,65.133 27.119,56.334 		"/>
	</g>
	<g>
		
			<image overflow="visible" opacity="0.4" width="18" height="20" xlink:href="8E5C8151.png"  transform="matrix(1 0 0 1 8.5 57.5)">
		</image>
		<g>
			<path fill="#FFFFFF" d="M11.116,60.25c0-0.688,0.558-1.246,1.246-1.246c0.213,0,0.348,0.057,0.587,0.15l8.734,5.082
				c0.406,0.241,0.594,0.627,0.667,1.075v0.123c-0.073,0.447-0.26,0.832-0.667,1.073l-8.734,5.082
				c-0.239,0.095-0.375,0.151-0.587,0.151c-0.689,0-1.246-0.557-1.246-1.247V60.25L11.116,60.25z"/>
		</g>
	</g>
</g>
<path fill="#FFFFFF" d="M51.539,73.215c-0.294,0.711-0.667,1.066-1.119,1.066c-0.243,0-0.446-0.068-0.612-0.207
	s-0.342-0.436-0.535-0.887l-5.518-15.826c-0.139-0.363-0.174-0.65-0.104-0.857c0.07-0.209,0.252-0.365,0.547-0.471
	c0.694-0.276,1.162-0.042,1.405,0.705l4.841,14.082l4.789-14.136c0.123-0.346,0.295-0.563,0.522-0.651
	c0.225-0.085,0.458-0.111,0.702-0.077c0.313,0.035,0.539,0.157,0.677,0.364c0.14,0.209,0.122,0.539-0.053,0.99L51.539,73.215z"/>
<path fill="#FFFFFF" d="M77.563,72.797c0.051,0.365,0.039,0.701-0.037,1.004s-0.361,0.463-0.846,0.48
	c-0.312,0-0.538-0.09-0.677-0.271s-0.243-0.49-0.313-0.926l-1.51-10.385c-0.051-0.33-0.116-0.738-0.194-1.225
	c-0.078-0.484-0.165-0.905-0.26-1.264c-0.097-0.354-0.2-0.584-0.313-0.688c-0.113-0.105-0.229,0.051-0.352,0.469l-3.878,13.352
	c-0.087,0.33-0.194,0.57-0.327,0.719c-0.129,0.146-0.333,0.219-0.612,0.219c-0.294,0-0.503-0.066-0.625-0.195
	s-0.235-0.377-0.338-0.742c-0.66-2.238-1.325-4.459-1.99-6.662c-0.669-2.205-1.316-4.426-1.94-6.664
	c-0.121-0.417-0.249-0.625-0.379-0.625c-0.129,0-0.228,0.208-0.298,0.625l-1.926,13.016c-0.052,0.398-0.153,0.705-0.298,0.922
	c-0.147,0.217-0.421,0.326-0.821,0.326c-0.659,0-0.911-0.434-0.755-1.301l2.369-15.488c0.069-0.521,0.237-0.91,0.507-1.172
	c0.269-0.26,0.619-0.389,1.053-0.389c0.434,0,0.794,0.111,1.081,0.338c0.286,0.225,0.515,0.623,0.688,1.197l3.696,13.041
	l3.618-13.068c0.156-0.555,0.378-0.945,0.663-1.17c0.286-0.227,0.639-0.338,1.056-0.338c0.416,0,0.766,0.129,1.052,0.389
	c0.287,0.262,0.473,0.66,0.559,1.199L77.563,72.797z"/>
<path fill="#F3B362" d="M83.71,60.818c0,0.381,0.115,0.713,0.348,0.994c0.234,0.283,0.52,0.533,0.86,0.748
	c0.339,0.215,0.697,0.398,1.069,0.547c0.373,0.15,0.71,0.291,1.009,0.424c0.764,0.332,1.414,0.664,1.954,0.996
	c0.539,0.332,0.982,0.689,1.332,1.07c0.35,0.383,0.604,0.809,0.771,1.283c0.167,0.473,0.24,1.023,0.225,1.656
	c-0.033,1.641-0.549,2.965-1.543,3.969c-0.996,1.004-2.515,1.539-4.557,1.605c-0.73,0.033-1.428-0.055-2.09-0.26
	c-0.665-0.209-1.238-0.436-1.719-0.686c-0.432-0.217-0.777-0.465-1.033-0.748c-0.258-0.281-0.445-0.559-0.561-0.832
	c-0.117-0.275-0.171-0.541-0.162-0.797c0.008-0.258,0.078-0.486,0.213-0.686c0.23-0.363,0.51-0.568,0.834-0.609
	c0.322-0.041,0.624,0.029,0.908,0.211c0.249,0.166,0.51,0.346,0.784,0.537c0.274,0.189,0.563,0.363,0.872,0.521
	c0.307,0.156,0.629,0.285,0.97,0.387c0.34,0.098,0.71,0.148,1.106,0.148c0.334,0,0.66-0.059,0.984-0.174
	c0.324-0.117,0.61-0.281,0.859-0.498c0.248-0.215,0.447-0.486,0.597-0.811c0.151-0.322,0.224-0.691,0.224-1.107
	c0-0.398-0.092-0.744-0.273-1.045c-0.182-0.299-0.401-0.561-0.658-0.783c-0.26-0.225-0.541-0.412-0.848-0.562
	c-0.309-0.148-0.584-0.264-0.834-0.348c-0.696-0.248-1.349-0.518-1.954-0.809c-0.606-0.291-1.132-0.635-1.58-1.033
	s-0.808-0.871-1.071-1.42c-0.265-0.547-0.397-1.193-0.397-1.941c0-0.797,0.16-1.496,0.484-2.104
	c0.323-0.605,0.752-1.107,1.282-1.507c0.531-0.397,1.133-0.695,1.805-0.896c0.674-0.199,1.355-0.29,2.055-0.273
	c0.779,0.016,1.502,0.141,2.166,0.373c0.662,0.232,1.215,0.523,1.656,0.871c0.438,0.348,0.737,0.727,0.895,1.134
	s0.129,0.792-0.087,1.157c-0.116,0.183-0.262,0.327-0.435,0.436c-0.174,0.109-0.357,0.184-0.549,0.225
	c-0.19,0.041-0.377,0.045-0.56,0.012c-0.185-0.033-0.332-0.1-0.448-0.198c-0.165-0.116-0.354-0.245-0.561-0.388
	c-0.207-0.141-0.436-0.273-0.686-0.398c-0.248-0.123-0.509-0.223-0.783-0.299c-0.273-0.074-0.553-0.111-0.834-0.111
	c-0.316,0-0.596,0.062-0.846,0.188c-0.249,0.125-0.461,0.283-0.635,0.473c-0.175,0.191-0.312,0.402-0.412,0.635
	C83.76,60.328,83.71,60.569,83.71,60.818z"/>
<g enable-background="new    ">
	<path fill="#FFFFFF" d="M100.764,64.615c0.521,0.082,0.947,0.281,1.279,0.598c0.33,0.316,0.496,0.762,0.496,1.334
		c0,0.676-0.199,1.207-0.598,1.59c-0.396,0.383-0.957,0.576-1.678,0.576h-2.278c-0.156,0-0.273-0.043-0.352-0.125
		c-0.078-0.08-0.117-0.186-0.117-0.311v-6.764c0-0.127,0.041-0.23,0.123-0.312c0.081-0.082,0.197-0.123,0.346-0.123h1.774
		c0.402,0,0.748,0.047,1.039,0.14c0.289,0.093,0.527,0.226,0.713,0.396c0.186,0.172,0.324,0.375,0.414,0.609
		c0.088,0.234,0.133,0.496,0.133,0.785c0,0.426-0.119,0.775-0.361,1.051S101.145,64.52,100.764,64.615z M98.398,64.26h1.352
		c0.469,0,0.824-0.107,1.07-0.318c0.246-0.213,0.369-0.504,0.369-0.877c0-0.357-0.117-0.648-0.352-0.877
		c-0.234-0.225-0.598-0.34-1.088-0.34h-1.352V64.26z M98.398,67.941h1.508c0.594,0,1.037-0.113,1.326-0.34
		c0.291-0.227,0.438-0.586,0.438-1.078c0-0.527-0.172-0.904-0.514-1.133c-0.344-0.227-0.842-0.34-1.496-0.34h-1.262V67.941z"/>
	<path fill="#FFFFFF" d="M107.416,67.383c-0.141,0.336-0.361,0.619-0.658,0.85s-0.67,0.346-1.115,0.346
		c-0.275,0-0.541-0.041-0.793-0.123c-0.254-0.082-0.475-0.207-0.664-0.373c-0.189-0.168-0.342-0.383-0.457-0.643
		s-0.174-0.568-0.174-0.926v-3.293c0-0.268,0.139-0.402,0.414-0.402c0.289,0,0.434,0.135,0.434,0.402v2.957
		c0,0.596,0.127,1.016,0.381,1.262c0.252,0.246,0.602,0.369,1.049,0.369c0.186,0,0.373-0.033,0.562-0.102
		c0.189-0.066,0.359-0.17,0.508-0.307c0.15-0.137,0.27-0.316,0.363-0.535c0.094-0.221,0.139-0.486,0.139-0.799v-2.846
		c0-0.268,0.143-0.402,0.424-0.402c0.127,0,0.23,0.039,0.309,0.113s0.117,0.17,0.117,0.289v5.291c0,0.326-0.064,0.625-0.191,0.893
		c-0.125,0.268-0.305,0.498-0.535,0.691s-0.512,0.342-0.842,0.447c-0.332,0.104-0.701,0.154-1.111,0.154
		c-0.424-0.006-0.783-0.062-1.076-0.166c-0.295-0.105-0.578-0.262-0.854-0.469c-0.105-0.082-0.164-0.176-0.18-0.279
		c-0.014-0.104-0.004-0.213,0.035-0.324c0.045-0.111,0.117-0.172,0.217-0.184s0.203,0.035,0.307,0.139
		c0.18,0.156,0.406,0.281,0.682,0.375c0.273,0.092,0.58,0.135,0.914,0.129c0.535-0.016,0.969-0.148,1.301-0.396
		c0.33-0.25,0.496-0.586,0.496-1.01V67.383z"/>
	<path fill="#FFFFFF" d="M118.141,65.498h-1.773c-0.35,0-0.525-0.131-0.525-0.391c0-0.283,0.176-0.424,0.525-0.424h2.02
		c0.238,0,0.404,0.055,0.498,0.166c0.092,0.113,0.139,0.324,0.139,0.637c0,0.439-0.057,0.865-0.168,1.277
		c-0.111,0.414-0.291,0.779-0.541,1.1s-0.574,0.58-0.971,0.775c-0.398,0.197-0.885,0.297-1.457,0.297
		c-0.559,0-1.061-0.105-1.506-0.318c-0.447-0.213-0.83-0.498-1.15-0.859c-0.318-0.361-0.564-0.783-0.736-1.268
		c-0.172-0.482-0.258-1-0.258-1.551c0-0.535,0.086-1.051,0.252-1.545c0.168-0.496,0.408-0.93,0.721-1.307
		c0.312-0.375,0.689-0.677,1.133-0.904c0.441-0.227,0.939-0.34,1.49-0.34c0.318,0,0.627,0.031,0.926,0.095
		c0.297,0.063,0.594,0.181,0.893,0.352c0.164,0.097,0.311,0.198,0.441,0.302c0.129,0.104,0.234,0.205,0.316,0.301
		c0.084,0.098,0.135,0.189,0.156,0.279c0.023,0.09,0.012,0.168-0.031,0.234c-0.031,0.053-0.072,0.102-0.125,0.15
		c-0.051,0.049-0.113,0.08-0.184,0.096c-0.07,0.014-0.146,0.012-0.229-0.006c-0.082-0.02-0.164-0.068-0.246-0.15
		c-0.178-0.172-0.348-0.312-0.506-0.426c-0.162-0.111-0.32-0.199-0.475-0.268c-0.156-0.066-0.314-0.112-0.475-0.139
		c-0.16-0.025-0.33-0.039-0.508-0.039c-0.373,0-0.721,0.092-1.045,0.273c-0.322,0.182-0.604,0.424-0.842,0.725
		c-0.238,0.303-0.426,0.648-0.564,1.039c-0.137,0.391-0.205,0.797-0.205,1.221c0,0.439,0.068,0.857,0.205,1.252
		c0.139,0.393,0.33,0.736,0.576,1.031c0.244,0.295,0.537,0.529,0.875,0.703c0.34,0.174,0.709,0.262,1.111,0.262
		c0.408,0,0.754-0.072,1.037-0.217c0.283-0.146,0.514-0.34,0.691-0.586c0.18-0.246,0.311-0.525,0.393-0.842
		C118.1,66.17,118.141,65.84,118.141,65.498z"/>
	<path fill="#FFFFFF" d="M122.762,63.59c-0.223,0.014-0.432,0.072-0.625,0.172c-0.193,0.102-0.363,0.242-0.508,0.424
		c-0.145,0.184-0.262,0.408-0.346,0.676c-0.086,0.268-0.129,0.572-0.129,0.916v2.645c0,0.268-0.143,0.4-0.424,0.4
		c-0.283,0-0.424-0.133-0.424-0.4v-5.201c0-0.133,0.039-0.234,0.117-0.301s0.184-0.102,0.318-0.102c0.125,0,0.227,0.031,0.301,0.09
		c0.074,0.061,0.111,0.164,0.111,0.312v0.893c0.09-0.17,0.189-0.336,0.301-0.496s0.238-0.303,0.381-0.43
		c0.141-0.127,0.297-0.227,0.469-0.301c0.17-0.074,0.359-0.113,0.568-0.113c0.172,0,0.289,0.039,0.352,0.113
		s0.094,0.162,0.094,0.268c0,0.178-0.057,0.291-0.172,0.34S122.902,63.574,122.762,63.59z"/>
	<path fill="#FFFFFF" d="M125.439,66.412c0,0.604,0.115,1.037,0.346,1.301s0.57,0.396,1.016,0.396c0.186,0,0.377-0.031,0.574-0.096
		c0.197-0.062,0.375-0.162,0.531-0.295c0.156-0.135,0.283-0.303,0.385-0.508c0.1-0.205,0.15-0.453,0.15-0.742v-3.248
		c0-0.268,0.141-0.402,0.424-0.402c0.127,0,0.229,0.039,0.307,0.113s0.117,0.17,0.117,0.289v5.201c0,0.133-0.041,0.234-0.123,0.301
		s-0.186,0.1-0.312,0.1c-0.275,0-0.412-0.133-0.412-0.4v-0.658c-0.066,0.133-0.158,0.266-0.273,0.396
		c-0.115,0.129-0.252,0.248-0.414,0.355c-0.158,0.109-0.336,0.197-0.529,0.264s-0.402,0.1-0.625,0.1
		c-0.275,0-0.533-0.043-0.775-0.129c-0.242-0.084-0.455-0.217-0.637-0.396c-0.182-0.178-0.326-0.398-0.436-0.662
		c-0.107-0.266-0.162-0.576-0.162-0.934v-3.537c0-0.268,0.139-0.402,0.414-0.402c0.289,0,0.436,0.135,0.436,0.402V66.412z"/>
	<path fill="#FFFFFF" d="M131.645,70.039c0,0.119-0.033,0.225-0.102,0.312c-0.066,0.09-0.182,0.135-0.346,0.135
		c-0.164-0.008-0.277-0.055-0.34-0.141c-0.062-0.084-0.096-0.188-0.096-0.307v-6.773c0-0.119,0.033-0.221,0.102-0.307
		c0.066-0.086,0.174-0.133,0.324-0.141c0.148,0,0.258,0.045,0.328,0.135s0.105,0.193,0.105,0.312v0.814
		c0.143-0.379,0.365-0.695,0.67-0.949c0.305-0.252,0.682-0.383,1.127-0.391c0.336,0,0.654,0.059,0.961,0.174
		c0.305,0.115,0.57,0.299,0.797,0.553c0.227,0.252,0.41,0.576,0.547,0.971c0.139,0.395,0.207,0.867,0.207,1.418
		c0,0.453-0.061,0.865-0.18,1.238c-0.119,0.371-0.285,0.689-0.502,0.953c-0.215,0.266-0.473,0.469-0.775,0.615
		c-0.301,0.145-0.635,0.217-0.998,0.217c-0.453,0-0.828-0.104-1.123-0.312c-0.293-0.209-0.529-0.506-0.707-0.893V70.039z
		 M135.037,65.855c0-0.35-0.035-0.67-0.107-0.961c-0.07-0.289-0.178-0.537-0.322-0.742c-0.146-0.203-0.33-0.361-0.553-0.475
		c-0.223-0.111-0.484-0.166-0.781-0.166c-0.26,0-0.494,0.062-0.697,0.189c-0.205,0.127-0.379,0.295-0.52,0.508
		c-0.141,0.211-0.248,0.461-0.324,0.748c-0.074,0.285-0.111,0.59-0.111,0.908c0,0.32,0.039,0.619,0.117,0.893
		c0.078,0.275,0.189,0.516,0.336,0.721c0.145,0.205,0.316,0.365,0.512,0.48c0.197,0.115,0.42,0.172,0.666,0.172
		c0.564,0,1.004-0.201,1.316-0.602C134.881,67.127,135.037,66.568,135.037,65.855z"/>
	<path fill="#FFFFFF" d="M139.311,62.707c0.477,0,0.885,0.086,1.229,0.258c0.342,0.17,0.623,0.4,0.848,0.691
		c0.223,0.289,0.387,0.625,0.49,1.004c0.105,0.381,0.156,0.781,0.156,1.205s-0.055,0.824-0.162,1.199
		c-0.107,0.377-0.273,0.707-0.496,0.988c-0.223,0.283-0.506,0.508-0.848,0.67c-0.344,0.164-0.748,0.246-1.217,0.246
		s-0.875-0.084-1.217-0.252c-0.342-0.166-0.623-0.395-0.842-0.68c-0.221-0.287-0.381-0.617-0.486-0.994
		c-0.104-0.375-0.156-0.775-0.156-1.199s0.051-0.826,0.15-1.205c0.102-0.379,0.262-0.713,0.48-1c0.221-0.285,0.498-0.514,0.838-0.68
		C138.416,62.791,138.826,62.707,139.311,62.707z M139.311,68.221c0.297,0,0.562-0.057,0.793-0.168s0.424-0.27,0.58-0.475
		c0.156-0.203,0.275-0.451,0.357-0.74c0.08-0.291,0.121-0.611,0.121-0.961c0-0.357-0.037-0.682-0.111-0.977
		c-0.074-0.293-0.189-0.547-0.346-0.758c-0.156-0.213-0.352-0.377-0.586-0.492s-0.512-0.174-0.832-0.174
		c-0.318,0-0.594,0.061-0.824,0.18s-0.42,0.285-0.564,0.496c-0.145,0.213-0.252,0.463-0.318,0.754s-0.1,0.605-0.1,0.949
		c0,0.348,0.039,0.668,0.117,0.959s0.193,0.539,0.346,0.748s0.342,0.371,0.568,0.484C138.74,68.164,139.006,68.221,139.311,68.221z"
		/>
	<path fill="#FFFFFF" d="M147.781,61.078c0.119,0,0.213,0.029,0.285,0.09c0.07,0.059,0.105,0.133,0.105,0.223
		c0,0.111-0.053,0.249-0.156,0.412l-4.086,6.094h3.773c0.141,0,0.25,0.029,0.328,0.09s0.117,0.164,0.117,0.312
		s-0.041,0.254-0.127,0.318c-0.086,0.062-0.193,0.096-0.318,0.096h-4.498c-0.141,0-0.25-0.037-0.33-0.107
		c-0.076-0.07-0.117-0.162-0.117-0.273c0-0.104,0.041-0.219,0.125-0.346l4.072-6.094h-3.504c-0.127,0-0.232-0.031-0.318-0.094
		c-0.086-0.064-0.129-0.166-0.129-0.309c0-0.274,0.148-0.412,0.447-0.412H147.781z"/>
</g>
<path fill="#F4F3F4" stroke="#F4F3F4" stroke-miterlimit="10" d="M127.424-41.98c-0.217,0.525-0.492,0.788-0.828,0.788
	c-0.18,0-0.329-0.05-0.452-0.152c-0.124-0.104-0.253-0.322-0.396-0.656l-4.083-11.708c-0.102-0.269-0.128-0.481-0.076-0.634
	c0.051-0.155,0.186-0.271,0.403-0.349c0.515-0.205,0.859-0.031,1.041,0.522l3.581,10.416l3.544-10.457
	c0.09-0.256,0.218-0.417,0.386-0.482c0.167-0.063,0.34-0.082,0.52-0.057c0.23,0.026,0.397,0.117,0.5,0.27
	c0.103,0.155,0.091,0.398-0.039,0.733L127.424-41.98z"/>
<path fill="#F4F3F4" stroke="#F4F3F4" stroke-miterlimit="10" d="M147.678-42.29c0.037,0.271,0.028,0.52-0.028,0.742
	c-0.056,0.226-0.267,0.343-0.625,0.355c-0.23,0-0.399-0.066-0.502-0.2c-0.102-0.135-0.178-0.363-0.23-0.684l-1.117-7.684
	c-0.038-0.244-0.086-0.546-0.143-0.906c-0.058-0.357-0.124-0.668-0.192-0.935c-0.072-0.262-0.148-0.431-0.231-0.508
	c-0.083-0.078-0.171,0.038-0.261,0.347l-2.869,9.878c-0.064,0.243-0.145,0.421-0.242,0.531c-0.096,0.107-0.245,0.161-0.453,0.161
	c-0.218,0-0.372-0.048-0.461-0.145c-0.091-0.095-0.174-0.278-0.251-0.548c-0.487-1.656-0.979-3.299-1.472-4.929
	c-0.496-1.632-0.975-3.275-1.437-4.93c-0.089-0.309-0.184-0.463-0.28-0.463c-0.096,0-0.168,0.154-0.22,0.463l-1.426,9.628
	c-0.038,0.295-0.112,0.522-0.22,0.682c-0.11,0.16-0.312,0.241-0.607,0.241c-0.488,0-0.674-0.32-0.559-0.962l1.753-11.458
	c0.051-0.386,0.175-0.674,0.375-0.867c0.198-0.193,0.457-0.288,0.778-0.288c0.322,0,0.588,0.082,0.8,0.25
	c0.212,0.167,0.382,0.46,0.51,0.886l2.734,9.646l2.677-9.667c0.116-0.41,0.28-0.699,0.49-0.865c0.212-0.168,0.472-0.25,0.781-0.25
	c0.308,0,0.566,0.095,0.778,0.288c0.211,0.193,0.35,0.488,0.414,0.887L147.678-42.29z"/>
<path fill="#F3B362" d="M153.224-51.151c0,0.282,0.086,0.527,0.258,0.735c0.174,0.209,0.385,0.395,0.636,0.553
	c0.252,0.16,0.517,0.295,0.792,0.406c0.276,0.111,0.524,0.215,0.746,0.313c0.564,0.245,1.046,0.491,1.445,0.738
	c0.399,0.245,0.728,0.508,0.984,0.791c0.26,0.283,0.447,0.598,0.572,0.949c0.123,0.351,0.177,0.757,0.167,1.226
	c-0.026,1.214-0.406,2.193-1.143,2.936c-0.737,0.743-1.86,1.139-3.371,1.188c-0.54,0.024-1.057-0.04-1.545-0.192
	c-0.493-0.154-0.917-0.322-1.271-0.508c-0.319-0.159-0.576-0.343-0.765-0.553c-0.19-0.209-0.33-0.413-0.415-0.614
	c-0.086-0.204-0.128-0.401-0.12-0.591c0.006-0.19,0.058-0.36,0.157-0.508c0.171-0.269,0.378-0.42,0.618-0.45
	c0.237-0.03,0.46,0.022,0.671,0.156c0.185,0.123,0.377,0.256,0.58,0.398c0.203,0.14,0.417,0.268,0.646,0.386
	c0.227,0.114,0.465,0.21,0.717,0.285c0.252,0.072,0.525,0.109,0.818,0.109c0.247,0,0.489-0.043,0.729-0.128
	c0.24-0.088,0.451-0.208,0.636-0.368c0.183-0.16,0.33-0.361,0.44-0.602c0.111-0.237,0.166-0.51,0.166-0.818
	c0-0.295-0.067-0.551-0.202-0.773c-0.135-0.221-0.298-0.414-0.487-0.579c-0.192-0.166-0.4-0.305-0.626-0.415
	c-0.229-0.11-0.433-0.195-0.618-0.258c-0.516-0.183-0.998-0.383-1.445-0.598c-0.449-0.215-0.837-0.469-1.169-0.764
	c-0.331-0.295-0.598-0.645-0.793-1.051c-0.195-0.404-0.295-0.883-0.295-1.436c0-0.59,0.12-1.107,0.358-1.556
	c0.239-0.449,0.558-0.82,0.949-1.116c0.394-0.294,0.838-0.514,1.336-0.661c0.497-0.148,1.002-0.216,1.52-0.204
	c0.577,0.012,1.111,0.104,1.603,0.277c0.489,0.172,0.899,0.387,1.226,0.644c0.323,0.258,0.545,0.538,0.662,0.84
	c0.115,0.301,0.095,0.585-0.067,0.855c-0.084,0.135-0.192,0.242-0.319,0.323c-0.128,0.081-0.265,0.135-0.406,0.166
	s-0.278,0.033-0.414,0.009c-0.137-0.025-0.245-0.074-0.331-0.146c-0.122-0.087-0.262-0.182-0.414-0.288
	c-0.154-0.104-0.323-0.202-0.507-0.295c-0.184-0.091-0.377-0.164-0.58-0.221c-0.202-0.054-0.409-0.082-0.617-0.082
	c-0.234,0-0.44,0.045-0.626,0.139c-0.185,0.091-0.341,0.209-0.47,0.349c-0.129,0.142-0.23,0.298-0.305,0.47
	S153.224-51.335,153.224-51.151z"/>
<g>
	<path fill="#F4F3F4" d="M47.459-48.737h-4.15c-0.494,0-0.896,0.41-0.896,0.914c0,0.486,0.41,0.896,0.896,0.896h3.217v2.838
		c-0.945,0.729-2.235,1.162-3.476,1.162c-2.907,0-4.859-2.057-4.859-5.154c0-2.828,2.045-5.043,4.656-5.043
		c1.712,0,2.693,0.57,3.427,1.129c0.134,0.102,0.344,0.236,0.612,0.236c0.526,0,0.97-0.452,0.97-0.988
		c0-0.307-0.143-0.594-0.397-0.791c-1.365-1.004-2.728-1.432-4.556-1.432c-3.77,0-6.724,3.042-6.724,6.963
		c0,4.056,2.803,6.889,6.816,6.889c2.177,0,3.83-0.878,4.823-1.608c0.394-0.261,0.61-0.65,0.61-1.095v-3.928
		C48.428-48.285,47.984-48.737,47.459-48.737z"/>
	<path fill="#F4F3F4" d="M61.932-50.663c0-1.065-0.38-2.032-1.069-2.722c-0.878-0.88-2.245-1.364-3.847-1.364h-4.833
		c-0.525,0-0.969,0.452-0.969,0.988v11.525c0,0.536,0.444,0.988,0.969,0.988c0.544,0,0.988-0.443,0.988-0.988v-4.119h3.334
		l3.557,4.621c0.243,0.322,0.54,0.486,0.882,0.486c0.517,0,0.988-0.462,0.988-0.969c0-0.323-0.173-0.556-0.293-0.688l-2.967-3.819
		C60.75-47.253,61.932-48.659,61.932-50.663z M59.956-50.571c0,1.462-1.205,2.406-3.07,2.406H53.17v-4.738h3.734
		C58.844-52.903,59.956-52.066,59.956-50.571z"/>
	<path fill="#F4F3F4" d="M74.631-54.841c-0.544,0-0.988,0.442-0.988,0.986v6.861c0,2.587-1.293,4.012-3.642,4.012
		c-2.35,0-3.697-1.496-3.697-4.104v-6.77c0-0.544-0.443-0.986-0.988-0.986c-0.525,0-0.969,0.452-0.969,0.986v6.861
		c0,3.613,2.152,5.857,5.617,5.857c3.529,0,5.636-2.23,5.636-5.967v-6.752C75.601-54.389,75.157-54.841,74.631-54.841z"/>
	<path fill="#F4F3F4" d="M83.634-54.749h-4.113c-0.525,0-0.969,0.452-0.969,0.988v11.525c0,0.536,0.444,0.988,0.969,0.988
		c0.545,0,0.988-0.443,0.988-0.988v-3.658h2.886c3.183,0,5.321-1.798,5.321-4.512C88.716-53.044,86.721-54.749,83.634-54.749z
		 M83.45-47.722h-2.941v-5.182h3.015c2.045,0,3.218,0.932,3.218,2.59C86.741-48.739,85.449-47.722,83.45-47.722z"/>
	<path fill="#F4F3F4" d="M97.155-54.97c-3.843,0-6.853,3.042-6.853,6.963c0,3.927,2.93,6.889,6.815,6.889
		c3.843,0,6.854-3.042,6.854-6.963C103.972-52.008,101.041-54.97,97.155-54.97z M97.155-42.964c-2.759,0-4.84-2.184-4.84-5.117
		c0-2.875,2.064-5.043,4.803-5.043c2.76,0,4.841,2.184,4.841,5.117C101.959-45.132,99.894-42.964,97.155-42.964z"/>
	<path fill="#F4F3F4" d="M115.251-43.147h-7.269l7.775-9.884c0.156-0.188,0.315-0.432,0.315-0.841c0-0.467-0.427-0.877-0.914-0.877
		h-8.798c-0.504,0-0.913,0.41-0.913,0.914c0,0.493,0.409,0.895,0.913,0.895h6.974l-7.775,9.885c-0.155,0.19-0.314,0.435-0.314,0.84
		c0,0.476,0.427,0.877,0.932,0.877h9.074c0.504,0,0.914-0.41,0.914-0.914C116.165-42.746,115.755-43.147,115.251-43.147z"/>
</g>
<g>
	<polygon fill="#42A5DD" points="7.445,-59.935 11.212,-54.216 7.445,-54.216 	"/>
	<polygon fill="#BA4435" points="7.43,-59.935 17.816,-59.935 11.992,-54.216 11.198,-54.216 	"/>
	<polygon fill="#DFA419" points="17.816,-59.935 19.242,-59.935 20.823,-54.064 19.142,-54.007 19.321,-54.216 11.992,-54.216 	"/>
	<polygon fill="#CA9315" points="19.242,-59.935 25.863,-59.935 20.823,-54.064 	"/>
	<polyline fill="#42A5DD" points="25.153,-51.04 25.036,-50.908 20.819,-54.064 25.859,-59.935 26.626,-59.935 	"/>
	<polygon fill="#BA4435" points="27.461,-59.935 28.688,-59.935 28.688,-57.834 	"/>
	<polygon fill="#2372A6" points="26.631,-59.935 27.461,-59.935 28.688,-57.834 28.688,-55.022 25.159,-51.04 	"/>
	<polygon fill="#1D944A" points="21.867,-50.686 24.98,-50.838 25.042,-50.908 20.823,-54.064 	"/>
	<polygon fill="#2AA256" points="17.455,-50.587 21.867,-50.686 20.823,-54.064 	"/>
	<polygon fill="#595C6A" points="16.591,-51.04 17.455,-50.587 20.823,-54.064 19.142,-54.007 	"/>
	<polygon fill="#78797F" points="16.039,-50.398 17.455,-50.587 16.591,-51.04 	"/>
	<polygon fill="#CA9315" points="23.994,-49.726 21.867,-50.686 24.98,-50.838 	"/>
	<polygon fill="#CA9315" points="22.507,-48.051 21.867,-50.686 17.455,-50.587 21.683,-47.119 	"/>
	<polygon fill="#DFA419" points="23.994,-49.726 21.867,-50.686 22.507,-48.051 	"/>
	<polygon fill="#2AA256" points="17.455,-50.587 17.563,-42.472 21.683,-47.119 	"/>
	<polygon fill="#2372A6" points="12.602,-41.987 11.688,-45.337 16.039,-50.398 17.455,-50.587 	"/>
	<polygon fill="#42A5DD" points="17.631,-37.457 17.631,-41.131 16.375,-41.131 17.563,-42.472 17.455,-50.587 12.602,-41.987 	"/>
	<polygon fill="#CA9315" points="11.688,-45.337 10.793,-44.296 12.602,-41.987 	"/>
	<polygon fill="#78797F" points="10.793,-44.296 12.602,-41.987 8.09,-41.151 	"/>
	<polygon fill="#595C6A" points="7.396,-37.604 7.396,-40.368 8.09,-41.151 12.602,-41.987 	"/>
	<polygon fill="#CE483A" points="17.631,-37.457 7.387,-36.584 7.387,-37.604 12.602,-41.987 	"/>
	<polygon fill="#BA4435" points="15.512,-35.376 7.378,-35.376 7.378,-36.584 17.631,-37.457 	"/>
	<polygon fill="#DFA419" points="18.189,-35.376 17.631,-37.457 15.512,-35.376 	"/>
	<polygon fill="#2AA256" points="19.927,-41.131 17.631,-37.457 17.631,-41.131 	"/>
	<polygon fill="#1D944A" points="24.428,-41.131 25.5,-37.457 17.631,-37.457 19.927,-41.131 	"/>
	<polygon fill="#CE483A" points="28.688,-40.223 28.688,-36.663 25.5,-37.457 	"/>
	<polygon fill="#2372A6" points="26.713,-35.376 25.155,-35.376 25.5,-37.457 	"/>
	<polygon fill="#BA4435" points="28.688,-35.376 28.688,-36.663 25.5,-37.457 26.713,-35.376 	"/>
	<polygon fill="#42A5DD" points="25.155,-35.376 23.714,-35.376 25.5,-37.457 	"/>
	<polygon fill="#595C6A" points="28.688,-41.131 28.688,-40.223 25.5,-37.457 24.428,-41.131 	"/>
	<polyline fill="#CA9315" points="23.714,-35.376 18.189,-35.376 17.631,-37.457 25.5,-37.457 	"/>
</g>
</svg>
